# MagicaVoxel @ Ephtracy

# group
o 

# material
mtllib prototipociudad-4.mtl
usemtl palette

# normals
vn 1 0 0
vn -1 0 0
vn 0 0 -1
vn 0 0 1
vn 0 -1 0
vn 0 1 0

# texcoords
vt 0.767578 0.5
vt 0.783203 0.5
vt 0.787109 0.5
vt 0.791016 0.5
vt 0.806641 0.5
vt 0.830078 0.5
vt 0.833984 0.5
vt 0.837891 0.5
vt 0.849609 0.5
vt 0.958984 0.5

# verts
v 11.4 0.1 12.5
v 11.4 0.1 12.6
v 11.4 0.2 0.2
v 11.4 0.2 12.5
v 11.4 2 0.2
v 11.4 2 12.6
v 11.4 2.7 0.2
v 11.4 2.7 12.6
v 11.3 0.1 0.2
v 11.3 0.1 12.5
v 11.3 0.2 0.2
v 11.3 0.2 12.5
v 9.4 2.3 12.6
v 9.4 2.3 12.7
v 9.4 2.5 12.6
v 9.4 2.5 12.7
v 9 2.3 12.6
v 9 2.3 12.7
v 9 2.5 12.6
v 9 2.5 12.7
v 8.5 2.4 12.6
v 8.5 2.4 12.7
v 8.5 2.5 12.6
v 8.5 2.5 12.7
v 8.1 2.3 12.6
v 8.1 2.3 12.7
v 8.1 2.5 12.6
v 8.1 2.5 12.7
v 7.7 2.3 12.6
v 7.7 2.3 12.7
v 7.7 2.5 12.6
v 7.7 2.5 12.7
v 7.2 2.4 12.6
v 7.2 2.4 12.7
v 7.2 2.5 12.6
v 7.2 2.5 12.7
v 6.8 2.4 12.6
v 6.8 2.4 12.7
v 6.8 2.5 12.6
v 6.8 2.5 12.7
v 0.700001 2.4 0.3
v 0.700001 2.4 0.4
v 0.700001 2.4 9.9
v 0.700001 2.4 12.4
v 0.700001 2.5 0.3
v 0.700001 2.5 0.4
v 0.700001 2.5 9.9
v 0.700001 2.5 12.4
v 9.3 2.3 12.6
v 9.3 2.3 12.7
v 9.3 2.4 12.6
v 9.3 2.4 12.7
v 9.2 2.4 12.6
v 9.2 2.4 12.7
v 9.2 2.5 12.6
v 9.2 2.5 12.7
v 8.8 2.3 12.6
v 8.8 2.3 12.7
v 8.8 2.4 12.6
v 8.8 2.4 12.7
v 8.7 2.4 12.6
v 8.7 2.4 12.7
v 8.7 2.5 12.6
v 8.7 2.5 12.7
v 8.3 2.4 12.6
v 8.3 2.4 12.7
v 8.3 2.5 12.6
v 8.3 2.5 12.7
v 7.9 2.3 12.6
v 7.9 2.3 12.7
v 7.9 2.4 12.6
v 7.9 2.4 12.7
v 7.8 2.4 12.6
v 7.8 2.4 12.7
v 7.8 2.5 12.6
v 7.8 2.5 12.7
v 7.6 2.3 12.6
v 7.6 2.3 12.7
v 7.6 2.4 12.6
v 7.6 2.4 12.7
v 7.4 2.4 12.6
v 7.4 2.4 12.7
v 7.4 2.5 12.6
v 7.4 2.5 12.7
v 7 2.4 12.6
v 7 2.4 12.7
v 7 2.5 12.6
v 7 2.5 12.7
v 6.6 2.4 12.6
v 6.6 2.4 12.7
v 6.6 2.5 12.6
v 6.6 2.5 12.7
v 6.6 2.6 0.2
v 6.6 2.6 12.6
v 6.6 2.7 0.2
v 6.6 2.7 12.6
v 0.800001 2.4 0.3
v 0.800001 2.4 0.4
v 0.800001 2.4 9.9
v 0.800001 2.4 12.4
v 0.800001 2.5 0.3
v 0.800001 2.5 0.4
v 0.800001 2.5 9.9
v 0.800001 2.5 12.4
v -1.2 0.1 0.2
v -1.2 0.1 12.6
v -1.2 1.1 0.2
v -1.2 1.1 12.6
v -1.2 2.1 0.2
v -1.2 2.1 12.6
v -1.2 2.3 0.2
v -1.2 2.3 12.6
v -1.2 2.5 0.2
v -1.2 2.5 12.6
v -1.2 2.6 0.2
v -1.2 2.6 12.6
v 11.4 0.2 0.2
v 11.4 2 0.2
v 11.4 2.7 0.2
v 11.3 0.1 0.2
v 11.3 0.2 0.2
v 11.3 1.1 0.2
v 6.7 2 0.2
v 6.7 2.1 0.2
v 6.6 2.1 0.2
v 6.6 2.3 0.2
v 6.6 2.5 0.2
v 6.6 2.6 0.2
v 6.6 2.7 0.2
v 3.7 2.5 0.2
v 3.7 2.6 0.2
v 3.4 2.5 0.2
v 3.4 2.6 0.2
v 0.500001 2.4 0.2
v 0.500001 2.5 0.2
v 0.500001 2.6 0.2
v 0.200001 2.4 0.2
v 0.200001 2.5 0.2
v 0.200001 2.6 0.2
v 0.1 2.5 0.2
v 0.1 2.6 0.2
v -0.199999 2.5 0.2
v -0.199999 2.6 0.2
v -0.999999 0.1 0.2
v -0.999999 0.2 0.2
v -1.2 0.1 0.2
v -1.2 1.1 0.2
v -1.2 2.1 0.2
v -1.2 2.3 0.2
v -1.2 2.5 0.2
v -1.2 2.6 0.2
v 0.800001 2.4 0.4
v 0.800001 2.5 0.4
v 0.700001 2.4 0.4
v 0.700001 2.5 0.4
v 0.800001 2.4 12.4
v 0.800001 2.5 12.4
v 0.700001 2.4 12.4
v 0.700001 2.5 12.4
v 11.4 0.1 12.5
v 11.4 0.2 12.5
v 11.3 0.1 12.5
v 11.3 0.2 12.5
v 0.800001 2.4 0.3
v 0.800001 2.5 0.3
v 0.700001 2.4 0.3
v 0.700001 2.5 0.3
v 0.800001 2.4 9.9
v 0.800001 2.5 9.9
v 0.700001 2.4 9.9
v 0.700001 2.5 9.9
v 11.4 0.1 12.6
v 11.4 2 12.6
v 11.4 2.7 12.6
v 11.3 0.1 12.6
v 11.3 1.1 12.6
v 9.4 2.3 12.6
v 9.4 2.5 12.6
v 9.3 2.3 12.6
v 9.3 2.4 12.6
v 9.2 2.4 12.6
v 9.2 2.5 12.6
v 9 2.3 12.6
v 9 2.5 12.6
v 8.8 2.3 12.6
v 8.8 2.4 12.6
v 8.7 2.4 12.6
v 8.7 2.5 12.6
v 8.5 2.4 12.6
v 8.5 2.5 12.6
v 8.3 2.4 12.6
v 8.3 2.5 12.6
v 8.1 2.3 12.6
v 8.1 2.5 12.6
v 7.9 2.3 12.6
v 7.9 2.4 12.6
v 7.8 2.4 12.6
v 7.8 2.5 12.6
v 7.7 2.3 12.6
v 7.7 2.5 12.6
v 7.6 2.3 12.6
v 7.6 2.4 12.6
v 7.4 2.4 12.6
v 7.4 2.5 12.6
v 7.2 2.4 12.6
v 7.2 2.5 12.6
v 7 2.4 12.6
v 7 2.5 12.6
v 6.8 2.4 12.6
v 6.8 2.5 12.6
v 6.7 2 12.6
v 6.7 2.1 12.6
v 6.6 2.1 12.6
v 6.6 2.3 12.6
v 6.6 2.4 12.6
v 6.6 2.5 12.6
v 6.6 2.6 12.6
v 6.6 2.7 12.6
v 3.7 2.5 12.6
v 3.7 2.6 12.6
v 3.4 2.5 12.6
v 3.4 2.6 12.6
v 0.500001 2.4 12.6
v 0.500001 2.5 12.6
v 0.500001 2.6 12.6
v 0.200001 2.4 12.6
v 0.200001 2.5 12.6
v 0.200001 2.6 12.6
v 0.1 2.4 12.6
v 0.1 2.5 12.6
v 0.1 2.6 12.6
v -0.199999 2.4 12.6
v -0.199999 2.5 12.6
v -0.199999 2.6 12.6
v -1.2 0.1 12.6
v -1.2 1.1 12.6
v -1.2 2.1 12.6
v -1.2 2.3 12.6
v -1.2 2.5 12.6
v -1.2 2.6 12.6
v 9.4 2.3 12.7
v 9.4 2.5 12.7
v 9.3 2.3 12.7
v 9.3 2.4 12.7
v 9.2 2.4 12.7
v 9.2 2.5 12.7
v 9 2.3 12.7
v 9 2.5 12.7
v 8.8 2.3 12.7
v 8.8 2.4 12.7
v 8.7 2.4 12.7
v 8.7 2.5 12.7
v 8.5 2.4 12.7
v 8.5 2.5 12.7
v 8.3 2.4 12.7
v 8.3 2.5 12.7
v 8.1 2.3 12.7
v 8.1 2.5 12.7
v 7.9 2.3 12.7
v 7.9 2.4 12.7
v 7.8 2.4 12.7
v 7.8 2.5 12.7
v 7.7 2.3 12.7
v 7.7 2.5 12.7
v 7.6 2.3 12.7
v 7.6 2.4 12.7
v 7.4 2.4 12.7
v 7.4 2.5 12.7
v 7.2 2.4 12.7
v 7.2 2.5 12.7
v 7 2.4 12.7
v 7 2.5 12.7
v 6.8 2.4 12.7
v 6.8 2.5 12.7
v 6.6 2.4 12.7
v 6.6 2.5 12.7
v 11.3 0.1 0.2
v -0.999999 0.1 0.2
v -1.2 0.1 0.2
v 11.4 0.1 12.5
v 11.3 0.1 12.5
v -0.999999 0.1 12.5
v 11.4 0.1 12.6
v 11.3 0.1 12.6
v -1.2 0.1 12.6
v 11.4 0.2 0.2
v 11.3 0.2 0.2
v 11.4 0.2 12.5
v 11.3 0.2 12.5
v 9.4 2.3 12.6
v 9.3 2.3 12.6
v 9 2.3 12.6
v 8.8 2.3 12.6
v 8.1 2.3 12.6
v 7.9 2.3 12.6
v 7.7 2.3 12.6
v 7.6 2.3 12.6
v 9.4 2.3 12.7
v 9.3 2.3 12.7
v 9 2.3 12.7
v 8.8 2.3 12.7
v 8.1 2.3 12.7
v 7.9 2.3 12.7
v 7.7 2.3 12.7
v 7.6 2.3 12.7
v 9.3 2.4 12.6
v 9.2 2.4 12.6
v 8.8 2.4 12.6
v 8.7 2.4 12.6
v 8.5 2.4 12.6
v 8.3 2.4 12.6
v 7.9 2.4 12.6
v 7.8 2.4 12.6
v 7.6 2.4 12.6
v 7.4 2.4 12.6
v 7.2 2.4 12.6
v 7 2.4 12.6
v 6.8 2.4 12.6
v 6.6 2.4 12.6
v 9.3 2.4 12.7
v 9.2 2.4 12.7
v 8.8 2.4 12.7
v 8.7 2.4 12.7
v 8.5 2.4 12.7
v 8.3 2.4 12.7
v 7.9 2.4 12.7
v 7.8 2.4 12.7
v 7.6 2.4 12.7
v 7.4 2.4 12.7
v 7.2 2.4 12.7
v 7 2.4 12.7
v 6.8 2.4 12.7
v 6.6 2.4 12.7
v 0.800001 2.5 0.3
v 0.700001 2.5 0.3
v 0.800001 2.5 0.4
v 0.700001 2.5 0.4
v 0.800001 2.5 9.9
v 0.700001 2.5 9.9
v 0.800001 2.5 12.4
v 0.700001 2.5 12.4
v 0.800001 2.4 0.3
v 0.700001 2.4 0.3
v 0.800001 2.4 0.4
v 0.700001 2.4 0.4
v 0.800001 2.4 9.9
v 0.700001 2.4 9.9
v 0.800001 2.4 12.4
v 0.700001 2.4 12.4
v 9.4 2.5 12.6
v 9.2 2.5 12.6
v 9 2.5 12.6
v 8.7 2.5 12.6
v 8.5 2.5 12.6
v 8.3 2.5 12.6
v 8.1 2.5 12.6
v 7.8 2.5 12.6
v 7.7 2.5 12.6
v 7.4 2.5 12.6
v 7.2 2.5 12.6
v 7 2.5 12.6
v 6.8 2.5 12.6
v 6.6 2.5 12.6
v 9.4 2.5 12.7
v 9.2 2.5 12.7
v 9 2.5 12.7
v 8.7 2.5 12.7
v 8.5 2.5 12.7
v 8.3 2.5 12.7
v 8.1 2.5 12.7
v 7.8 2.5 12.7
v 7.7 2.5 12.7
v 7.4 2.5 12.7
v 7.2 2.5 12.7
v 7 2.5 12.7
v 6.8 2.5 12.7
v 6.6 2.5 12.7
v 6.6 2.6 0.2
v 3.7 2.6 0.2
v 3.4 2.6 0.2
v 0.500001 2.6 0.2
v 0.200001 2.6 0.2
v 0.1 2.6 0.2
v -0.199999 2.6 0.2
v -1.2 2.6 0.2
v 3.7 2.6 2.1
v 3.4 2.6 2.1
v 3.7 2.6 3.1
v 3.4 2.6 3.1
v 3.7 2.6 5.1
v 3.4 2.6 5.1
v 3.7 2.6 6.1
v 3.4 2.6 6.1
v 3.7 2.6 8.1
v 3.4 2.6 8.1
v 3.7 2.6 9.1
v 3.4 2.6 9.1
v 3.7 2.6 11.1
v 3.4 2.6 11.1
v 3.7 2.6 12.1
v 3.4 2.6 12.1
v 6.6 2.6 12.6
v 3.7 2.6 12.6
v 3.4 2.6 12.6
v 0.500001 2.6 12.6
v 0.200001 2.6 12.6
v 0.1 2.6 12.6
v -0.199999 2.6 12.6
v -1.2 2.6 12.6
v 11.4 2.7 0.2
v 6.6 2.7 0.2
v 11.4 2.7 12.6
v 6.6 2.7 12.6

# faces
f 4/3/1 2/3/1 1/3/1
f 5/3/1 4/3/1 3/3/1
f 6/3/1 2/3/1 4/3/1
f 6/3/1 4/3/1 5/3/1
f 7/1/1 6/1/1 5/1/1
f 8/1/1 6/1/1 7/1/1
f 11/10/1 10/10/1 9/10/1
f 12/10/1 10/10/1 11/10/1
f 15/5/1 14/5/1 13/5/1
f 16/5/1 14/5/1 15/5/1
f 19/5/1 18/5/1 17/5/1
f 20/5/1 18/5/1 19/5/1
f 23/5/1 22/5/1 21/5/1
f 24/5/1 22/5/1 23/5/1
f 27/5/1 26/5/1 25/5/1
f 28/5/1 26/5/1 27/5/1
f 31/5/1 30/5/1 29/5/1
f 32/5/1 30/5/1 31/5/1
f 35/5/1 34/5/1 33/5/1
f 36/5/1 34/5/1 35/5/1
f 39/5/1 38/5/1 37/5/1
f 40/5/1 38/5/1 39/5/1
f 45/4/1 42/4/1 41/4/1
f 46/4/1 42/4/1 45/4/1
f 47/4/1 44/4/1 43/4/1
f 48/4/1 44/4/1 47/4/1
f 49/5/2 50/5/2 51/5/2
f 51/5/2 50/5/2 52/5/2
f 53/5/2 54/5/2 55/5/2
f 55/5/2 54/5/2 56/5/2
f 57/5/2 58/5/2 59/5/2
f 59/5/2 58/5/2 60/5/2
f 61/5/2 62/5/2 63/5/2
f 63/5/2 62/5/2 64/5/2
f 65/5/2 66/5/2 67/5/2
f 67/5/2 66/5/2 68/5/2
f 69/5/2 70/5/2 71/5/2
f 71/5/2 70/5/2 72/5/2
f 73/5/2 74/5/2 75/5/2
f 75/5/2 74/5/2 76/5/2
f 77/5/2 78/5/2 79/5/2
f 79/5/2 78/5/2 80/5/2
f 81/5/2 82/5/2 83/5/2
f 83/5/2 82/5/2 84/5/2
f 85/5/2 86/5/2 87/5/2
f 87/5/2 86/5/2 88/5/2
f 89/5/2 90/5/2 91/5/2
f 91/5/2 90/5/2 92/5/2
f 93/1/2 94/1/2 95/1/2
f 95/1/2 94/1/2 96/1/2
f 97/10/2 98/10/2 101/10/2
f 101/10/2 98/10/2 102/10/2
f 99/10/2 100/10/2 103/10/2
f 103/10/2 100/10/2 104/10/2
f 105/2/2 106/2/2 107/2/2
f 107/2/2 106/2/2 108/2/2
f 107/3/2 108/3/2 109/3/2
f 109/3/2 108/3/2 110/3/2
f 109/4/2 110/4/2 111/4/2
f 111/4/2 110/4/2 112/4/2
f 111/8/2 112/8/2 113/8/2
f 113/8/2 112/8/2 114/8/2
f 113/7/2 114/7/2 115/7/2
f 115/7/2 114/7/2 116/7/2
f 121/3/3 118/3/3 117/3/3
f 122/3/3 118/3/3 121/3/3
f 123/1/3 119/1/3 118/1/3
f 123/3/3 118/3/3 122/3/3
f 124/1/3 119/1/3 123/1/3
f 125/3/3 124/3/3 123/3/3
f 125/1/3 119/1/3 124/1/3
f 126/1/3 119/1/3 125/1/3
f 127/1/3 119/1/3 126/1/3
f 128/1/3 119/1/3 127/1/3
f 129/1/3 119/1/3 128/1/3
f 130/8/3 127/8/3 126/8/3
f 130/7/3 128/7/3 127/7/3
f 131/7/3 128/7/3 130/7/3
f 132/8/3 130/8/3 126/8/3
f 132/6/3 131/6/3 130/6/3
f 133/6/3 131/6/3 132/6/3
f 134/8/3 132/8/3 126/8/3
f 135/7/3 133/7/3 132/7/3
f 135/8/3 132/8/3 134/8/3
f 136/7/3 133/7/3 135/7/3
f 137/8/3 134/8/3 126/8/3
f 137/9/3 135/9/3 134/9/3
f 137/9/3 136/9/3 135/9/3
f 138/9/3 136/9/3 137/9/3
f 139/9/3 136/9/3 138/9/3
f 140/8/3 138/8/3 137/8/3
f 140/7/3 139/7/3 138/7/3
f 141/7/3 139/7/3 140/7/3
f 142/8/3 140/8/3 137/8/3
f 142/9/3 141/9/3 140/9/3
f 143/9/3 141/9/3 142/9/3
f 144/10/3 121/10/3 120/10/3
f 145/2/3 122/2/3 121/2/3
f 145/10/3 121/10/3 144/10/3
f 146/2/3 145/2/3 144/2/3
f 147/3/3 123/3/3 122/3/3
f 147/2/3 145/2/3 146/2/3
f 147/3/3 125/3/3 123/3/3
f 147/2/3 122/2/3 145/2/3
f 148/4/3 126/4/3 125/4/3
f 148/3/3 125/3/3 147/3/3
f 149/8/3 137/8/3 126/8/3
f 149/4/3 126/4/3 148/4/3
f 149/8/3 142/8/3 137/8/3
f 150/7/3 143/7/3 142/7/3
f 150/8/3 142/8/3 149/8/3
f 151/7/3 143/7/3 150/7/3
f 154/7/3 153/7/3 152/7/3
f 155/7/3 153/7/3 154/7/3
f 158/4/3 157/4/3 156/4/3
f 159/4/3 157/4/3 158/4/3
f 162/3/3 161/3/3 160/3/3
f 163/3/3 161/3/3 162/3/3
f 164/8/4 165/8/4 166/8/4
f 166/8/4 165/8/4 167/8/4
f 168/7/4 169/7/4 170/7/4
f 170/7/4 169/7/4 171/7/4
f 172/3/4 173/3/4 175/3/4
f 175/3/4 173/3/4 176/3/4
f 173/1/4 174/1/4 177/1/4
f 177/1/4 174/1/4 178/1/4
f 173/1/4 177/1/4 179/1/4
f 179/1/4 180/1/4 181/1/4
f 178/1/4 174/1/4 182/1/4
f 179/1/4 181/1/4 183/1/4
f 181/1/4 182/1/4 183/1/4
f 173/1/4 179/1/4 183/1/4
f 182/1/4 174/1/4 184/1/4
f 183/1/4 182/1/4 184/1/4
f 173/1/4 183/1/4 185/1/4
f 185/1/4 186/1/4 187/1/4
f 184/1/4 174/1/4 188/1/4
f 185/1/4 187/1/4 189/1/4
f 187/1/4 188/1/4 189/1/4
f 188/1/4 174/1/4 190/1/4
f 189/1/4 188/1/4 190/1/4
f 185/1/4 189/1/4 191/1/4
f 190/1/4 174/1/4 192/1/4
f 185/1/4 191/1/4 193/1/4
f 191/1/4 192/1/4 193/1/4
f 173/1/4 185/1/4 193/1/4
f 192/1/4 174/1/4 194/1/4
f 193/1/4 192/1/4 194/1/4
f 173/1/4 193/1/4 195/1/4
f 195/1/4 196/1/4 197/1/4
f 194/1/4 174/1/4 198/1/4
f 195/1/4 197/1/4 199/1/4
f 197/1/4 198/1/4 199/1/4
f 173/1/4 195/1/4 199/1/4
f 198/1/4 174/1/4 200/1/4
f 199/1/4 198/1/4 200/1/4
f 173/1/4 199/1/4 201/1/4
f 201/1/4 202/1/4 203/1/4
f 200/1/4 174/1/4 204/1/4
f 201/1/4 203/1/4 205/1/4
f 203/1/4 204/1/4 205/1/4
f 204/1/4 174/1/4 206/1/4
f 205/1/4 204/1/4 206/1/4
f 201/1/4 205/1/4 207/1/4
f 206/1/4 174/1/4 208/1/4
f 201/1/4 207/1/4 209/1/4
f 207/1/4 208/1/4 209/1/4
f 208/1/4 174/1/4 210/1/4
f 209/1/4 208/1/4 210/1/4
f 176/3/4 173/3/4 211/3/4
f 201/1/4 209/1/4 211/1/4
f 173/1/4 201/1/4 211/1/4
f 211/1/4 209/1/4 212/1/4
f 211/3/4 212/3/4 213/3/4
f 212/1/4 209/1/4 213/1/4
f 213/1/4 209/1/4 214/1/4
f 214/1/4 209/1/4 215/1/4
f 210/1/4 174/1/4 216/1/4
f 216/1/4 174/1/4 217/1/4
f 217/1/4 174/1/4 218/1/4
f 214/8/4 215/8/4 219/8/4
f 215/8/4 216/8/4 219/8/4
f 216/7/4 217/7/4 219/7/4
f 219/7/4 217/7/4 220/7/4
f 214/8/4 219/8/4 221/8/4
f 219/6/4 220/6/4 221/6/4
f 221/6/4 220/6/4 222/6/4
f 214/8/4 221/8/4 223/8/4
f 221/7/4 222/7/4 224/7/4
f 223/8/4 221/8/4 224/8/4
f 224/7/4 222/7/4 225/7/4
f 214/8/4 223/8/4 226/8/4
f 223/9/4 224/9/4 226/9/4
f 224/9/4 225/9/4 226/9/4
f 226/9/4 225/9/4 227/9/4
f 227/9/4 225/9/4 228/9/4
f 214/8/4 226/8/4 229/8/4
f 226/8/4 227/8/4 229/8/4
f 227/7/4 228/7/4 230/7/4
f 229/8/4 227/8/4 230/8/4
f 230/7/4 228/7/4 231/7/4
f 214/8/4 229/8/4 232/8/4
f 229/6/4 230/6/4 232/6/4
f 230/9/4 231/9/4 233/9/4
f 232/6/4 230/6/4 233/6/4
f 233/9/4 231/9/4 234/9/4
f 175/2/4 176/2/4 235/2/4
f 176/3/4 211/3/4 236/3/4
f 235/2/4 176/2/4 236/2/4
f 211/3/4 213/3/4 236/3/4
f 213/4/4 214/4/4 237/4/4
f 236/3/4 213/3/4 237/3/4
f 214/8/4 232/8/4 238/8/4
f 237/4/4 214/4/4 238/4/4
f 232/8/4 233/8/4 238/8/4
f 233/7/4 234/7/4 239/7/4
f 238/8/4 233/8/4 239/8/4
f 239/7/4 234/7/4 240/7/4
f 241/5/4 242/5/4 243/5/4
f 243/5/4 242/5/4 244/5/4
f 244/5/4 242/5/4 245/5/4
f 245/5/4 242/5/4 246/5/4
f 247/5/4 248/5/4 249/5/4
f 249/5/4 248/5/4 250/5/4
f 250/5/4 248/5/4 251/5/4
f 251/5/4 248/5/4 252/5/4
f 253/5/4 254/5/4 255/5/4
f 255/5/4 254/5/4 256/5/4
f 257/5/4 258/5/4 259/5/4
f 259/5/4 258/5/4 260/5/4
f 260/5/4 258/5/4 261/5/4
f 261/5/4 258/5/4 262/5/4
f 263/5/4 264/5/4 265/5/4
f 265/5/4 264/5/4 266/5/4
f 266/5/4 264/5/4 267/5/4
f 267/5/4 264/5/4 268/5/4
f 269/5/4 270/5/4 271/5/4
f 271/5/4 270/5/4 272/5/4
f 273/5/4 274/5/4 275/5/4
f 275/5/4 274/5/4 276/5/4
f 281/10/5 278/10/5 277/10/5
f 282/2/5 279/2/5 278/2/5
f 282/10/5 278/10/5 281/10/5
f 283/3/5 281/3/5 280/3/5
f 284/2/5 282/2/5 281/2/5
f 284/3/5 281/3/5 283/3/5
f 285/2/5 279/2/5 282/2/5
f 285/2/5 282/2/5 284/2/5
f 288/3/5 287/3/5 286/3/5
f 289/3/5 287/3/5 288/3/5
f 298/5/5 291/5/5 290/5/5
f 299/5/5 291/5/5 298/5/5
f 300/5/5 293/5/5 292/5/5
f 301/5/5 293/5/5 300/5/5
f 302/5/5 295/5/5 294/5/5
f 303/5/5 295/5/5 302/5/5
f 304/5/5 297/5/5 296/5/5
f 305/5/5 297/5/5 304/5/5
f 320/5/5 307/5/5 306/5/5
f 321/5/5 307/5/5 320/5/5
f 322/5/5 309/5/5 308/5/5
f 323/5/5 309/5/5 322/5/5
f 324/5/5 311/5/5 310/5/5
f 325/5/5 311/5/5 324/5/5
f 326/5/5 313/5/5 312/5/5
f 327/5/5 313/5/5 326/5/5
f 328/5/5 315/5/5 314/5/5
f 329/5/5 315/5/5 328/5/5
f 330/5/5 317/5/5 316/5/5
f 331/5/5 317/5/5 330/5/5
f 332/5/5 319/5/5 318/5/5
f 333/5/5 319/5/5 332/5/5
f 336/7/5 335/7/5 334/7/5
f 337/7/5 335/7/5 336/7/5
f 340/7/5 339/7/5 338/7/5
f 341/7/5 339/7/5 340/7/5
f 342/4/6 343/4/6 344/4/6
f 344/4/6 343/4/6 345/4/6
f 346/4/6 347/4/6 348/4/6
f 348/4/6 347/4/6 349/4/6
f 350/5/6 351/5/6 364/5/6
f 364/5/6 351/5/6 365/5/6
f 352/5/6 353/5/6 366/5/6
f 366/5/6 353/5/6 367/5/6
f 354/5/6 355/5/6 368/5/6
f 368/5/6 355/5/6 369/5/6
f 356/5/6 357/5/6 370/5/6
f 370/5/6 357/5/6 371/5/6
f 358/5/6 359/5/6 372/5/6
f 372/5/6 359/5/6 373/5/6
f 360/5/6 361/5/6 374/5/6
f 374/5/6 361/5/6 375/5/6
f 362/5/6 363/5/6 376/5/6
f 376/5/6 363/5/6 377/5/6
f 378/7/6 379/7/6 386/7/6
f 379/6/6 380/6/6 386/6/6
f 380/7/6 381/7/6 387/7/6
f 386/6/6 380/6/6 387/6/6
f 378/7/6 386/7/6 388/7/6
f 386/7/6 387/7/6 388/7/6
f 387/7/6 381/7/6 389/7/6
f 388/7/6 387/7/6 389/7/6
f 378/7/6 388/7/6 390/7/6
f 388/6/6 389/6/6 390/6/6
f 389/7/6 381/7/6 391/7/6
f 390/6/6 389/6/6 391/6/6
f 378/7/6 390/7/6 392/7/6
f 390/7/6 391/7/6 392/7/6
f 391/7/6 381/7/6 393/7/6
f 392/7/6 391/7/6 393/7/6
f 378/7/6 392/7/6 394/7/6
f 392/6/6 393/6/6 394/6/6
f 393/7/6 381/7/6 395/7/6
f 394/6/6 393/6/6 395/6/6
f 378/7/6 394/7/6 396/7/6
f 394/7/6 395/7/6 396/7/6
f 395/7/6 381/7/6 397/7/6
f 396/7/6 395/7/6 397/7/6
f 378/7/6 396/7/6 398/7/6
f 396/6/6 397/6/6 398/6/6
f 397/7/6 381/7/6 399/7/6
f 398/6/6 397/6/6 399/6/6
f 378/7/6 398/7/6 400/7/6
f 398/7/6 399/7/6 400/7/6
f 399/7/6 381/7/6 401/7/6
f 400/7/6 399/7/6 401/7/6
f 378/7/6 400/7/6 402/7/6
f 400/6/6 401/6/6 403/6/6
f 402/7/6 400/7/6 403/7/6
f 401/7/6 381/7/6 404/7/6
f 403/6/6 401/6/6 404/6/6
f 381/9/6 382/9/6 405/9/6
f 404/7/6 381/7/6 405/7/6
f 382/7/6 383/7/6 406/7/6
f 405/9/6 382/9/6 406/9/6
f 383/9/6 384/9/6 407/9/6
f 406/7/6 383/7/6 407/7/6
f 384/7/6 385/7/6 408/7/6
f 407/9/6 384/9/6 408/9/6
f 408/7/6 385/7/6 409/7/6
f 410/1/6 411/1/6 412/1/6
f 412/1/6 411/1/6 413/1/6
