# MagicaVoxel @ Ephtracy

# group
o 

# material
mtllib prototipociudad-1.mtl
usemtl palette

# normals
vn 0 0 -1
vn 0 0 1
vn -1 0 0
vn 1 0 0
vn 0 -1 0
vn 0 1 0

# texcoords
vt 0.841797 0.5
vt 0.849609 0.5
vt 0.876953 0.5
vt 0.884766 0.5
vt 0.904297 0.5
vt 0.912109 0.5
vt 0.958984 0.5
vt 0.970703 0.5

# verts
v 1 2.8 13.6
v 1.6 2.8 13.6
v 1.8 2.8 13.6
v 2 2.8 13.6
v 2.2 2.8 13.6
v 2.8 2.8 13.6
v 1.6 2.9 13.6
v 1.8 2.9 13.6
v 2 2.9 13.6
v 2.2 2.9 13.6
v 1.7 3 13.6
v 2.1 3 13.6
v 1.7 3.1 13.6
v 2.1 3.1 13.6
v 1.6 3.2 13.6
v 1.8 3.2 13.6
v 2 3.2 13.6
v 2.2 3.2 13.6
v 1 3.3 13.6
v 1.2 3.3 13.6
v 2.6 3.3 13.6
v 2.8 3.3 13.6
v 1 3.5 13.6
v 1.2 3.5 13.6
v 1.6 3.5 13.6
v 1.8 3.5 13.6
v 2 3.5 13.6
v 2.2 3.5 13.6
v 2.6 3.5 13.6
v 2.8 3.5 13.6
v 0.8 2.8 13.7
v 0.9 2.8 13.7
v 1 2.8 13.7
v 2.8 2.8 13.7
v 2.9 2.8 13.7
v 3 2.8 13.7
v 1 3.3 13.7
v 2.8 3.3 13.7
v 0.8 3.4 13.7
v 0.9 3.4 13.7
v 2.9 3.4 13.7
v 3 3.4 13.7
v 1 3.5 13.7
v 1.2 3.5 13.7
v 1.6 3.5 13.7
v 1.8 3.5 13.7
v 2 3.5 13.7
v 2.2 3.5 13.7
v 2.6 3.5 13.7
v 2.8 3.5 13.7
v 0.9 3.6 13.7
v 1.6 3.6 13.7
v 1.8 3.6 13.7
v 2 3.6 13.7
v 2.2 3.6 13.7
v 2.9 3.6 13.7
v 0.8 2.6 13.8
v 1.1 2.6 13.8
v 2.7 2.6 13.8
v 3 2.6 13.8
v 0.8 2.8 13.8
v 0.9 2.8 13.8
v 1.1 2.8 13.8
v 2.7 2.8 13.8
v 2.9 2.8 13.8
v 3 2.8 13.8
v 1 3.6 13.8
v 1.6 3.6 13.8
v 1.8 3.6 13.8
v 2 3.6 13.8
v 2.2 3.6 13.8
v 2.8 3.6 13.8
v 1 4.1 13.8
v 2.8 4.1 13.8
v 1 4.2 13.8
v 2.8 4.2 13.8
v 0.7 3.4 15.3
v 0.9 3.4 15.3
v 2.9 3.4 15.3
v 3.1 3.4 15.3
v 0.7 3.6 15.3
v 0.9 3.6 15.3
v 2.9 3.6 15.3
v 3.1 3.6 15.3
v 0.8 2.8 15.7
v 0.9 2.8 15.7
v 2.9 2.8 15.7
v 3 2.8 15.7
v 0.8 3.4 15.7
v 0.9 3.4 15.7
v 2.9 3.4 15.7
v 3 3.4 15.7
v 0.8 2.6 15.8
v 1.1 2.6 15.8
v 2.7 2.6 15.8
v 3 2.6 15.8
v 0.8 2.8 15.8
v 0.9 2.8 15.8
v 1.1 2.8 15.8
v 2.7 2.8 15.8
v 2.9 2.8 15.8
v 3 2.8 15.8
v 2.8 2.9 15.9
v 2.9 2.9 15.9
v 2.8 3 15.9
v 2.9 3 15.9
v 0.8 2.6 14.5
v 1.1 2.6 14.5
v 2.7 2.6 14.5
v 3 2.6 14.5
v 0.8 2.8 14.5
v 0.9 2.8 14.5
v 1.1 2.8 14.5
v 2.7 2.8 14.5
v 2.9 2.8 14.5
v 3 2.8 14.5
v 0.8 2.8 14.6
v 0.9 2.8 14.6
v 2.9 2.8 14.6
v 3 2.8 14.6
v 0.8 3.4 14.6
v 0.9 3.4 14.6
v 2.9 3.4 14.6
v 3 3.4 14.6
v 0.7 3.4 15.6
v 0.9 3.4 15.6
v 2.9 3.4 15.6
v 3.1 3.4 15.6
v 0.7 3.6 15.6
v 0.9 3.6 15.6
v 2.9 3.6 15.6
v 3.1 3.6 15.6
v 1 3.6 15.7
v 1.6 3.6 15.7
v 1.8 3.6 15.7
v 2 3.6 15.7
v 2.2 3.6 15.7
v 2.8 3.6 15.7
v 1 4.1 15.7
v 2.8 4.1 15.7
v 1 4.2 15.7
v 2.8 4.2 15.7
v 2.8 2.9 15.8
v 2.9 2.9 15.8
v 2.8 3 15.8
v 2.9 3 15.8
v 0.8 2.6 16.5
v 1.1 2.6 16.5
v 2.7 2.6 16.5
v 3 2.6 16.5
v 0.8 2.8 16.5
v 0.9 2.8 16.5
v 1.1 2.8 16.5
v 2.7 2.8 16.5
v 2.9 2.8 16.5
v 3 2.8 16.5
v 0.8 2.8 16.6
v 0.9 2.8 16.6
v 1 2.8 16.6
v 2.8 2.8 16.6
v 2.9 2.8 16.6
v 3 2.8 16.6
v 0.8 3.4 16.6
v 0.9 3.4 16.6
v 2.9 3.4 16.6
v 3 3.4 16.6
v 1 3.5 16.6
v 1.6 3.5 16.6
v 1.8 3.5 16.6
v 2 3.5 16.6
v 2.2 3.5 16.6
v 2.8 3.5 16.6
v 0.9 3.6 16.6
v 1.6 3.6 16.6
v 1.8 3.6 16.6
v 2 3.6 16.6
v 2.2 3.6 16.6
v 2.9 3.6 16.6
v 1 2.8 16.8
v 2.8 2.8 16.8
v 1.2 2.9 16.8
v 2.6 2.9 16.8
v 1 3 16.8
v 1.1 3 16.8
v 1.2 3 16.8
v 2.6 3 16.8
v 2.7 3 16.8
v 2.8 3 16.8
v 1 3.1 16.8
v 1.1 3.1 16.8
v 2.7 3.1 16.8
v 2.8 3.1 16.8
v 1.2 3.2 16.8
v 2.6 3.2 16.8
v 1 3.3 16.8
v 1.2 3.3 16.8
v 2.6 3.3 16.8
v 2.8 3.3 16.8
v 1.2 3.4 16.8
v 1.6 3.4 16.8
v 1.8 3.4 16.8
v 2 3.4 16.8
v 2.2 3.4 16.8
v 2.6 3.4 16.8
v 1 3.5 16.8
v 1.2 3.5 16.8
v 1.6 3.5 16.8
v 1.8 3.5 16.8
v 2 3.5 16.8
v 2.2 3.5 16.8
v 2.6 3.5 16.8
v 2.8 3.5 16.8
v 0.7 3.4 15.3
v 0.7 3.6 15.3
v 0.7 3.4 15.6
v 0.7 3.6 15.6
v 0.8 2.8 13.7
v 0.8 3.4 13.7
v 0.8 2.6 13.8
v 0.8 2.8 13.8
v 0.8 3.3 13.8
v 0.8 2.8 14
v 0.8 3.1 14
v 0.8 2.8 14.3
v 0.8 3.1 14.3
v 0.8 2.6 14.5
v 0.8 2.8 14.5
v 0.8 3.3 14.5
v 0.8 2.8 14.6
v 0.8 3.4 14.6
v 0.8 2.8 15.7
v 0.8 3.4 15.7
v 0.8 2.6 15.8
v 0.8 2.8 15.8
v 0.8 3.3 15.8
v 0.8 2.8 16
v 0.8 3.1 16
v 0.8 2.8 16.3
v 0.8 3.1 16.3
v 0.8 2.6 16.5
v 0.8 2.8 16.5
v 0.8 3.3 16.5
v 0.8 2.8 16.6
v 0.8 3.4 16.6
v 0.9 3.4 13.7
v 0.9 3.6 13.7
v 0.9 2.8 14.6
v 0.9 3.4 14.6
v 0.9 3.4 15.3
v 0.9 3.6 15.3
v 0.9 3.4 15.6
v 0.9 3.6 15.6
v 0.9 2.8 15.7
v 0.9 3.4 15.7
v 0.9 3.4 16.6
v 0.9 3.6 16.6
v 1 2.8 13.6
v 1 3.3 13.6
v 1 3.5 13.6
v 1 2.8 13.7
v 1 3.3 13.7
v 1 3.5 13.7
v 1 3.6 13.8
v 1 4.1 13.8
v 1 4.2 13.8
v 1 3.6 15.7
v 1 4.1 15.7
v 1 4.2 15.7
v 1 2.8 16.6
v 1 3.5 16.6
v 1 3 16.7
v 1 3.1 16.7
v 1 3.3 16.7
v 1 3.5 16.7
v 1 2.8 16.8
v 1 3 16.8
v 1 3.1 16.8
v 1 3.3 16.8
v 1 3.5 16.8
v 2.7 2.6 13.8
v 2.7 2.8 13.8
v 2.7 2.6 14.5
v 2.7 2.8 14.5
v 2.7 2.6 15.8
v 2.7 2.8 15.8
v 2.7 2.6 16.5
v 2.7 2.8 16.5
v 2.9 2.9 15.8
v 2.9 3 15.8
v 2.9 2.9 15.9
v 2.9 3 15.9
v 1.1 2.6 13.8
v 1.1 2.8 13.8
v 1.1 2.6 14.5
v 1.1 2.8 14.5
v 1.1 2.6 15.8
v 1.1 2.8 15.8
v 1.1 2.6 16.5
v 1.1 2.8 16.5
v 2.8 2.8 13.6
v 2.8 3.3 13.6
v 2.8 3.5 13.6
v 2.8 2.8 13.7
v 2.8 3.3 13.7
v 2.8 3.5 13.7
v 2.8 3.6 13.8
v 2.8 4.1 13.8
v 2.8 4.2 13.8
v 2.8 3.6 15.7
v 2.8 4.1 15.7
v 2.8 4.2 15.7
v 2.8 2.9 15.8
v 2.8 3 15.8
v 2.8 2.9 15.9
v 2.8 3 15.9
v 2.8 2.8 16.6
v 2.8 3.5 16.6
v 2.8 3 16.7
v 2.8 3.1 16.7
v 2.8 3.3 16.7
v 2.8 3.5 16.7
v 2.8 2.8 16.8
v 2.8 3 16.8
v 2.8 3.1 16.8
v 2.8 3.3 16.8
v 2.8 3.5 16.8
v 2.9 3.4 13.7
v 2.9 3.6 13.7
v 2.9 2.8 14.6
v 2.9 3.4 14.6
v 2.9 3.4 15.3
v 2.9 3.6 15.3
v 2.9 3.4 15.6
v 2.9 3.6 15.6
v 2.9 2.8 15.7
v 2.9 3.4 15.7
v 2.9 3.4 16.6
v 2.9 3.6 16.6
v 3 2.8 13.7
v 3 3.4 13.7
v 3 2.6 13.8
v 3 2.8 13.8
v 3 3.3 13.8
v 3 2.8 14
v 3 3.1 14
v 3 2.8 14.3
v 3 3.1 14.3
v 3 2.6 14.5
v 3 2.8 14.5
v 3 3.3 14.5
v 3 2.8 14.6
v 3 3.4 14.6
v 3 2.8 15.7
v 3 3.4 15.7
v 3 2.6 15.8
v 3 2.8 15.8
v 3 3.3 15.8
v 3 2.8 16
v 3 3.1 16
v 3 2.8 16.3
v 3 3.1 16.3
v 3 2.6 16.5
v 3 2.8 16.5
v 3 3.3 16.5
v 3 2.8 16.6
v 3 3.4 16.6
v 3.1 3.4 15.3
v 3.1 3.6 15.3
v 3.1 3.4 15.6
v 3.1 3.6 15.6
v 0.8 2.6 13.8
v 0.8 2.6 14.5
v 0.8 2.6 15.8
v 0.8 2.6 16.5
v 1.1 2.6 13.8
v 1.1 2.6 14.5
v 1.1 2.6 15.8
v 1.1 2.6 16.5
v 2.7 2.6 13.8
v 2.7 2.6 14.5
v 2.7 2.6 15.8
v 2.7 2.6 16.5
v 3 2.6 13.8
v 3 2.6 14.5
v 3 2.6 15.8
v 3 2.6 16.5
v 0.8 2.8 13.7
v 0.8 2.8 13.8
v 0.8 2.8 14.5
v 0.8 2.8 14.6
v 0.8 2.8 15.7
v 0.8 2.8 15.8
v 0.8 2.8 16.5
v 0.8 2.8 16.6
v 0.9 2.8 13.7
v 0.9 2.8 13.8
v 0.9 2.8 14.5
v 0.9 2.8 14.6
v 0.9 2.8 15.7
v 0.9 2.8 15.8
v 0.9 2.8 16.5
v 0.9 2.8 16.6
v 1 2.8 13.6
v 1 2.8 13.7
v 1 2.8 16.6
v 1 2.8 16.8
v 1.1 2.8 13.8
v 1.1 2.8 14.5
v 1.1 2.8 15.8
v 1.1 2.8 16.5
v 1.6 2.8 13.6
v 1.6 2.8 13.7
v 1.8 2.8 13.6
v 1.8 2.8 13.7
v 2 2.8 13.6
v 2 2.8 13.7
v 2.2 2.8 13.6
v 2.2 2.8 13.7
v 2.7 2.8 13.8
v 2.7 2.8 14.5
v 2.7 2.8 15.8
v 2.7 2.8 16.5
v 2.8 2.8 13.6
v 2.8 2.8 13.7
v 2.8 2.8 16.6
v 2.8 2.8 16.8
v 2.9 2.8 13.7
v 2.9 2.8 13.8
v 2.9 2.8 14.5
v 2.9 2.8 14.6
v 2.9 2.8 15.7
v 2.9 2.8 15.8
v 2.9 2.8 16.5
v 2.9 2.8 16.6
v 3 2.8 13.7
v 3 2.8 13.8
v 3 2.8 14.5
v 3 2.8 14.6
v 3 2.8 15.7
v 3 2.8 15.8
v 3 2.8 16.5
v 3 2.8 16.6
v 2.8 3 15.8
v 2.8 3 15.9
v 2.9 3 15.8
v 2.9 3 15.9
v 0.7 3.4 15.3
v 0.7 3.4 15.6
v 0.9 3.4 15.3
v 0.9 3.4 15.6
v 2.9 3.4 15.3
v 2.9 3.4 15.6
v 3.1 3.4 15.3
v 3.1 3.4 15.6
v 2.8 2.9 15.8
v 2.8 2.9 15.9
v 2.9 2.9 15.8
v 2.9 2.9 15.9
v 0.8 3.4 13.7
v 0.8 3.4 14.6
v 0.8 3.4 15.7
v 0.8 3.4 16.6
v 0.9 3.4 13.7
v 0.9 3.4 14.6
v 0.9 3.4 15.7
v 0.9 3.4 16.6
v 2.9 3.4 13.7
v 2.9 3.4 14.6
v 2.9 3.4 15.7
v 2.9 3.4 16.6
v 3 3.4 13.7
v 3 3.4 14.6
v 3 3.4 15.7
v 3 3.4 16.6
v 1 3.5 13.6
v 1 3.5 13.7
v 1 3.5 16.6
v 1 3.5 16.7
v 1 3.5 16.8
v 1.2 3.5 13.6
v 1.2 3.5 13.7
v 1.2 3.5 16.7
v 1.2 3.5 16.8
v 1.6 3.5 13.6
v 1.6 3.5 13.7
v 1.6 3.5 16.6
v 1.6 3.5 16.8
v 1.8 3.5 13.6
v 1.8 3.5 13.7
v 1.8 3.5 16.6
v 1.8 3.5 16.8
v 2 3.5 13.6
v 2 3.5 13.7
v 2 3.5 16.6
v 2 3.5 16.8
v 2.2 3.5 13.6
v 2.2 3.5 13.7
v 2.2 3.5 16.6
v 2.2 3.5 16.8
v 2.6 3.5 13.6
v 2.6 3.5 13.7
v 2.6 3.5 16.7
v 2.6 3.5 16.8
v 2.8 3.5 13.6
v 2.8 3.5 13.7
v 2.8 3.5 16.6
v 2.8 3.5 16.7
v 2.8 3.5 16.8
v 0.7 3.6 15.3
v 0.7 3.6 15.6
v 0.9 3.6 13.7
v 0.9 3.6 15.3
v 0.9 3.6 15.6
v 0.9 3.6 16.6
v 1 3.6 13.8
v 1 3.6 15.7
v 1.6 3.6 13.7
v 1.6 3.6 13.8
v 1.6 3.6 15.7
v 1.6 3.6 16.6
v 1.8 3.6 13.7
v 1.8 3.6 13.8
v 1.8 3.6 15.7
v 1.8 3.6 16.6
v 2 3.6 13.7
v 2 3.6 13.8
v 2 3.6 15.7
v 2 3.6 16.6
v 2.2 3.6 13.7
v 2.2 3.6 13.8
v 2.2 3.6 15.7
v 2.2 3.6 16.6
v 2.8 3.6 13.8
v 2.8 3.6 15.7
v 2.9 3.6 13.7
v 2.9 3.6 15.3
v 2.9 3.6 15.6
v 2.9 3.6 16.6
v 3.1 3.6 15.3
v 3.1 3.6 15.6
v 1 4.2 13.8
v 1 4.2 15.7
v 2.8 4.2 13.8
v 2.8 4.2 15.7

# faces
f 7/6/1 2/6/1 1/6/1
f 7/5/1 3/5/1 2/5/1
f 8/6/1 4/6/1 3/6/1
f 8/5/1 3/5/1 7/5/1
f 9/5/1 5/5/1 4/5/1
f 9/6/1 4/6/1 8/6/1
f 10/6/1 6/6/1 5/6/1
f 10/5/1 5/5/1 9/5/1
f 11/3/1 9/3/1 8/3/1
f 11/3/1 8/3/1 7/3/1
f 11/3/1 10/3/1 9/3/1
f 12/3/1 10/3/1 11/3/1
f 13/3/1 11/3/1 7/3/1
f 13/8/1 12/8/1 11/8/1
f 14/3/1 10/3/1 12/3/1
f 14/8/1 12/8/1 13/8/1
f 15/6/1 7/6/1 1/6/1
f 15/3/1 13/3/1 7/3/1
f 15/3/1 14/3/1 13/3/1
f 16/3/1 14/3/1 15/3/1
f 17/3/1 14/3/1 16/3/1
f 18/6/1 6/6/1 10/6/1
f 18/3/1 14/3/1 17/3/1
f 18/3/1 10/3/1 14/3/1
f 19/6/1 15/6/1 1/6/1
f 20/6/1 15/6/1 19/6/1
f 21/6/1 6/6/1 18/6/1
f 22/6/1 6/6/1 21/6/1
f 23/2/1 20/2/1 19/2/1
f 24/6/1 15/6/1 20/6/1
f 24/2/1 20/2/1 23/2/1
f 25/5/1 16/5/1 15/5/1
f 25/6/1 15/6/1 24/6/1
f 26/6/1 17/6/1 16/6/1
f 26/5/1 16/5/1 25/5/1
f 27/5/1 18/5/1 17/5/1
f 27/6/1 17/6/1 26/6/1
f 28/6/1 21/6/1 18/6/1
f 28/5/1 18/5/1 27/5/1
f 29/2/1 22/2/1 21/2/1
f 29/6/1 21/6/1 28/6/1
f 30/2/1 22/2/1 29/2/1
f 37/6/1 33/6/1 32/6/1
f 38/6/1 35/6/1 34/6/1
f 39/4/1 32/4/1 31/4/1
f 40/6/1 37/6/1 32/6/1
f 40/4/1 32/4/1 39/4/1
f 41/6/1 35/6/1 38/6/1
f 41/4/1 36/4/1 35/4/1
f 42/4/1 36/4/1 41/4/1
f 43/6/1 37/6/1 40/6/1
f 50/6/1 41/6/1 38/6/1
f 51/6/1 43/6/1 40/6/1
f 51/6/1 44/6/1 43/6/1
f 51/6/1 45/6/1 44/6/1
f 52/5/1 46/5/1 45/5/1
f 52/6/1 45/6/1 51/6/1
f 53/6/1 47/6/1 46/6/1
f 53/5/1 46/5/1 52/5/1
f 54/5/1 48/5/1 47/5/1
f 54/6/1 47/6/1 53/6/1
f 55/6/1 49/6/1 48/6/1
f 55/5/1 48/5/1 54/5/1
f 55/6/1 50/6/1 49/6/1
f 56/6/1 41/6/1 50/6/1
f 56/6/1 50/6/1 55/6/1
f 61/3/1 58/3/1 57/3/1
f 62/3/1 58/3/1 61/3/1
f 63/3/1 58/3/1 62/3/1
f 64/3/1 60/3/1 59/3/1
f 65/3/1 60/3/1 64/3/1
f 66/3/1 60/3/1 65/3/1
f 73/3/1 68/3/1 67/3/1
f 73/3/1 72/3/1 71/3/1
f 73/3/1 71/3/1 70/3/1
f 73/3/1 70/3/1 69/3/1
f 73/3/1 69/3/1 68/3/1
f 74/3/1 72/3/1 73/3/1
f 75/5/1 74/5/1 73/5/1
f 76/5/1 74/5/1 75/5/1
f 81/5/1 78/5/1 77/5/1
f 82/5/1 78/5/1 81/5/1
f 83/5/1 80/5/1 79/5/1
f 84/5/1 80/5/1 83/5/1
f 89/4/1 86/4/1 85/4/1
f 90/4/1 86/4/1 89/4/1
f 91/4/1 88/4/1 87/4/1
f 92/4/1 88/4/1 91/4/1
f 97/3/1 94/3/1 93/3/1
f 98/3/1 94/3/1 97/3/1
f 99/3/1 94/3/1 98/3/1
f 100/3/1 96/3/1 95/3/1
f 101/3/1 96/3/1 100/3/1
f 102/3/1 96/3/1 101/3/1
f 105/7/1 104/7/1 103/7/1
f 106/7/1 104/7/1 105/7/1
f 107/3/2 108/3/2 111/3/2
f 111/3/2 108/3/2 112/3/2
f 112/3/2 108/3/2 113/3/2
f 109/3/2 110/3/2 114/3/2
f 114/3/2 110/3/2 115/3/2
f 115/3/2 110/3/2 116/3/2
f 117/4/2 118/4/2 121/4/2
f 121/4/2 118/4/2 122/4/2
f 119/4/2 120/4/2 123/4/2
f 123/4/2 120/4/2 124/4/2
f 125/5/2 126/5/2 129/5/2
f 129/5/2 126/5/2 130/5/2
f 127/5/2 128/5/2 131/5/2
f 131/5/2 128/5/2 132/5/2
f 133/3/2 134/3/2 139/3/2
f 137/3/2 138/3/2 139/3/2
f 136/3/2 137/3/2 139/3/2
f 135/3/2 136/3/2 139/3/2
f 134/3/2 135/3/2 139/3/2
f 139/3/2 138/3/2 140/3/2
f 139/5/2 140/5/2 141/5/2
f 141/5/2 140/5/2 142/5/2
f 143/7/2 144/7/2 145/7/2
f 145/7/2 144/7/2 146/7/2
f 147/3/2 148/3/2 151/3/2
f 151/3/2 148/3/2 152/3/2
f 152/3/2 148/3/2 153/3/2
f 149/3/2 150/3/2 154/3/2
f 154/3/2 150/3/2 155/3/2
f 155/3/2 150/3/2 156/3/2
f 157/4/2 158/4/2 163/4/2
f 158/6/2 159/6/2 164/6/2
f 163/4/2 158/4/2 164/4/2
f 161/4/2 162/4/2 165/4/2
f 160/6/2 161/6/2 165/6/2
f 165/4/2 162/4/2 166/4/2
f 164/6/2 159/6/2 167/6/2
f 160/6/2 165/6/2 172/6/2
f 164/6/2 167/6/2 173/6/2
f 167/6/2 168/6/2 173/6/2
f 168/5/2 169/5/2 174/5/2
f 173/6/2 168/6/2 174/6/2
f 169/6/2 170/6/2 175/6/2
f 174/5/2 169/5/2 175/5/2
f 170/5/2 171/5/2 176/5/2
f 175/6/2 170/6/2 176/6/2
f 171/6/2 172/6/2 177/6/2
f 176/5/2 171/5/2 177/5/2
f 172/6/2 165/6/2 178/6/2
f 177/6/2 172/6/2 178/6/2
f 179/6/2 180/6/2 181/6/2
f 181/6/2 180/6/2 182/6/2
f 179/6/2 181/6/2 183/6/2
f 183/6/2 181/6/2 184/6/2
f 181/3/2 182/3/2 185/3/2
f 184/6/2 181/6/2 185/6/2
f 182/6/2 180/6/2 186/6/2
f 185/3/2 182/3/2 186/3/2
f 186/6/2 180/6/2 187/6/2
f 187/6/2 180/6/2 188/6/2
f 183/2/2 184/2/2 189/2/2
f 184/6/2 185/6/2 190/6/2
f 189/2/2 184/2/2 190/2/2
f 185/6/2 186/6/2 190/6/2
f 186/6/2 187/6/2 190/6/2
f 187/2/2 188/2/2 191/2/2
f 190/6/2 187/6/2 191/6/2
f 191/2/2 188/2/2 192/2/2
f 189/6/2 190/6/2 193/6/2
f 190/6/2 191/6/2 193/6/2
f 191/6/2 192/6/2 193/6/2
f 193/6/2 192/6/2 194/6/2
f 189/6/2 193/6/2 195/6/2
f 193/3/2 194/3/2 196/3/2
f 195/6/2 193/6/2 196/6/2
f 194/6/2 192/6/2 197/6/2
f 196/3/2 194/3/2 197/3/2
f 197/6/2 192/6/2 198/6/2
f 195/2/2 196/2/2 199/2/2
f 196/3/2 197/3/2 199/3/2
f 199/3/2 197/3/2 200/3/2
f 200/3/2 197/3/2 201/3/2
f 201/3/2 197/3/2 202/3/2
f 202/3/2 197/3/2 203/3/2
f 197/2/2 198/2/2 204/2/2
f 203/3/2 197/3/2 204/3/2
f 195/2/2 199/2/2 205/2/2
f 199/6/2 200/6/2 206/6/2
f 205/2/2 199/2/2 206/2/2
f 200/5/2 201/5/2 207/5/2
f 206/6/2 200/6/2 207/6/2
f 201/6/2 202/6/2 208/6/2
f 207/5/2 201/5/2 208/5/2
f 202/5/2 203/5/2 209/5/2
f 208/6/2 202/6/2 209/6/2
f 203/6/2 204/6/2 210/6/2
f 209/5/2 203/5/2 210/5/2
f 204/2/2 198/2/2 211/2/2
f 210/6/2 204/6/2 211/6/2
f 211/2/2 198/2/2 212/2/2
f 215/5/3 214/5/3 213/5/3
f 216/5/3 214/5/3 215/5/3
f 220/4/3 218/4/3 217/4/3
f 221/4/3 218/4/3 220/4/3
f 222/3/3 220/3/3 219/3/3
f 222/3/3 221/3/3 220/3/3
f 223/3/3 221/3/3 222/3/3
f 224/3/3 222/3/3 219/3/3
f 224/8/3 223/8/3 222/8/3
f 225/3/3 221/3/3 223/3/3
f 225/8/3 223/8/3 224/8/3
f 226/3/3 224/3/3 219/3/3
f 226/3/3 225/3/3 224/3/3
f 227/3/3 225/3/3 226/3/3
f 228/4/3 218/4/3 221/4/3
f 228/3/3 225/3/3 227/3/3
f 228/3/3 221/3/3 225/3/3
f 229/4/3 228/4/3 227/4/3
f 230/4/3 218/4/3 228/4/3
f 230/4/3 228/4/3 229/4/3
f 234/4/3 232/4/3 231/4/3
f 235/4/3 232/4/3 234/4/3
f 236/3/3 234/3/3 233/3/3
f 236/3/3 235/3/3 234/3/3
f 237/3/3 235/3/3 236/3/3
f 238/3/3 236/3/3 233/3/3
f 238/8/3 237/8/3 236/8/3
f 239/3/3 235/3/3 237/3/3
f 239/8/3 237/8/3 238/8/3
f 240/3/3 238/3/3 233/3/3
f 240/3/3 239/3/3 238/3/3
f 241/3/3 239/3/3 240/3/3
f 242/4/3 232/4/3 235/4/3
f 242/3/3 239/3/3 241/3/3
f 242/3/3 235/3/3 239/3/3
f 243/4/3 242/4/3 241/4/3
f 244/4/3 232/4/3 242/4/3
f 244/4/3 242/4/3 243/4/3
f 248/6/3 246/6/3 245/6/3
f 249/6/3 246/6/3 248/6/3
f 249/6/3 248/6/3 247/6/3
f 250/6/3 246/6/3 249/6/3
f 251/6/3 249/6/3 247/6/3
f 253/6/3 251/6/3 247/6/3
f 253/6/3 252/6/3 251/6/3
f 254/6/3 252/6/3 253/6/3
f 255/6/3 252/6/3 254/6/3
f 256/6/3 252/6/3 255/6/3
f 260/6/3 258/6/3 257/6/3
f 261/2/3 259/2/3 258/2/3
f 261/6/3 258/6/3 260/6/3
f 262/2/3 259/2/3 261/2/3
f 266/3/3 264/3/3 263/3/3
f 267/5/3 265/5/3 264/5/3
f 267/3/3 264/3/3 266/3/3
f 268/5/3 265/5/3 267/5/3
f 271/6/3 270/6/3 269/6/3
f 272/6/3 270/6/3 271/6/3
f 273/6/3 270/6/3 272/6/3
f 274/6/3 270/6/3 273/6/3
f 275/6/3 271/6/3 269/6/3
f 276/2/3 272/2/3 271/2/3
f 276/6/3 271/6/3 275/6/3
f 277/6/3 273/6/3 272/6/3
f 277/2/3 272/2/3 276/2/3
f 278/2/3 274/2/3 273/2/3
f 278/6/3 273/6/3 277/6/3
f 279/2/3 274/2/3 278/2/3
f 282/3/3 281/3/3 280/3/3
f 283/3/3 281/3/3 282/3/3
f 286/3/3 285/3/3 284/3/3
f 287/3/3 285/3/3 286/3/3
f 290/3/3 289/3/3 288/3/3
f 291/3/3 289/3/3 290/3/3
f 292/3/4 293/3/4 294/3/4
f 294/3/4 293/3/4 295/3/4
f 296/3/4 297/3/4 298/3/4
f 298/3/4 297/3/4 299/3/4
f 300/6/4 301/6/4 303/6/4
f 301/2/4 302/2/4 304/2/4
f 303/6/4 301/6/4 304/6/4
f 304/2/4 302/2/4 305/2/4
f 306/3/4 307/3/4 309/3/4
f 307/5/4 308/5/4 310/5/4
f 309/3/4 307/3/4 310/3/4
f 310/5/4 308/5/4 311/5/4
f 312/7/4 313/7/4 314/7/4
f 314/7/4 313/7/4 315/7/4
f 316/6/4 317/6/4 318/6/4
f 318/6/4 317/6/4 319/6/4
f 319/6/4 317/6/4 320/6/4
f 320/6/4 317/6/4 321/6/4
f 316/6/4 318/6/4 322/6/4
f 318/2/4 319/2/4 323/2/4
f 322/6/4 318/6/4 323/6/4
f 319/6/4 320/6/4 324/6/4
f 323/2/4 319/2/4 324/2/4
f 320/2/4 321/2/4 325/2/4
f 324/6/4 320/6/4 325/6/4
f 325/2/4 321/2/4 326/2/4
f 327/6/4 328/6/4 330/6/4
f 330/6/4 328/6/4 331/6/4
f 329/6/4 330/6/4 331/6/4
f 331/6/4 328/6/4 332/6/4
f 329/6/4 331/6/4 333/6/4
f 329/6/4 333/6/4 335/6/4
f 333/6/4 334/6/4 335/6/4
f 335/6/4 334/6/4 336/6/4
f 336/6/4 334/6/4 337/6/4
f 337/6/4 334/6/4 338/6/4
f 339/4/4 340/4/4 342/4/4
f 342/4/4 340/4/4 343/4/4
f 341/3/4 342/3/4 344/3/4
f 342/3/4 343/3/4 344/3/4
f 344/3/4 343/3/4 345/3/4
f 341/3/4 344/3/4 346/3/4
f 344/5/4 345/5/4 346/5/4
f 345/3/4 343/3/4 347/3/4
f 346/5/4 345/5/4 347/5/4
f 341/3/4 346/3/4 348/3/4
f 346/3/4 347/3/4 348/3/4
f 348/3/4 347/3/4 349/3/4
f 343/4/4 340/4/4 350/4/4
f 349/3/4 347/3/4 350/3/4
f 347/3/4 343/3/4 350/3/4
f 349/4/4 350/4/4 351/4/4
f 350/4/4 340/4/4 352/4/4
f 351/4/4 350/4/4 352/4/4
f 353/4/4 354/4/4 356/4/4
f 356/4/4 354/4/4 357/4/4
f 355/3/4 356/3/4 358/3/4
f 356/3/4 357/3/4 358/3/4
f 358/3/4 357/3/4 359/3/4
f 355/3/4 358/3/4 360/3/4
f 358/5/4 359/5/4 360/5/4
f 359/3/4 357/3/4 361/3/4
f 360/5/4 359/5/4 361/5/4
f 355/3/4 360/3/4 362/3/4
f 360/3/4 361/3/4 362/3/4
f 362/3/4 361/3/4 363/3/4
f 357/4/4 354/4/4 364/4/4
f 363/3/4 361/3/4 364/3/4
f 361/3/4 357/3/4 364/3/4
f 363/4/4 364/4/4 365/4/4
f 364/4/4 354/4/4 366/4/4
f 365/4/4 364/4/4 366/4/4
f 367/5/4 368/5/4 369/5/4
f 369/5/4 368/5/4 370/5/4
f 375/3/5 372/3/5 371/3/5
f 376/3/5 372/3/5 375/3/5
f 377/3/5 374/3/5 373/3/5
f 378/3/5 374/3/5 377/3/5
f 383/3/5 380/3/5 379/3/5
f 384/3/5 380/3/5 383/3/5
f 385/3/5 382/3/5 381/3/5
f 386/3/5 382/3/5 385/3/5
f 395/4/5 388/4/5 387/4/5
f 396/4/5 388/4/5 395/4/5
f 397/4/5 390/4/5 389/4/5
f 398/4/5 390/4/5 397/4/5
f 399/4/5 392/4/5 391/4/5
f 400/4/5 392/4/5 399/4/5
f 401/4/5 394/4/5 393/4/5
f 402/4/5 394/4/5 401/4/5
f 404/6/5 396/6/5 395/6/5
f 405/6/5 402/6/5 401/6/5
f 407/6/5 404/6/5 403/6/5
f 407/6/5 396/6/5 404/6/5
f 408/6/5 400/6/5 399/6/5
f 408/6/5 398/6/5 397/6/5
f 408/6/5 399/6/5 398/6/5
f 409/6/5 400/6/5 408/6/5
f 410/6/5 405/6/5 401/6/5
f 410/6/5 406/6/5 405/6/5
f 411/6/5 407/6/5 403/6/5
f 411/6/5 410/6/5 409/6/5
f 411/6/5 409/6/5 408/6/5
f 411/6/5 408/6/5 407/6/5
f 412/6/5 410/6/5 411/6/5
f 413/5/5 412/5/5 411/5/5
f 414/6/5 410/6/5 412/6/5
f 414/5/5 412/5/5 413/5/5
f 415/6/5 414/6/5 413/6/5
f 416/6/5 410/6/5 414/6/5
f 416/6/5 414/6/5 415/6/5
f 417/5/5 416/5/5 415/5/5
f 418/6/5 410/6/5 416/6/5
f 418/5/5 416/5/5 417/5/5
f 419/6/5 418/6/5 417/6/5
f 419/6/5 410/6/5 418/6/5
f 420/6/5 410/6/5 419/6/5
f 421/6/5 410/6/5 420/6/5
f 422/6/5 406/6/5 410/6/5
f 422/6/5 410/6/5 421/6/5
f 423/6/5 419/6/5 417/6/5
f 424/6/5 419/6/5 423/6/5
f 425/6/5 406/6/5 422/6/5
f 426/6/5 406/6/5 425/6/5
f 427/6/5 419/6/5 424/6/5
f 428/6/5 419/6/5 427/6/5
f 429/6/5 421/6/5 420/6/5
f 430/6/5 421/6/5 429/6/5
f 431/6/5 421/6/5 430/6/5
f 432/6/5 421/6/5 431/6/5
f 433/6/5 425/6/5 422/6/5
f 434/6/5 425/6/5 433/6/5
f 435/4/5 428/4/5 427/4/5
f 436/4/5 428/4/5 435/4/5
f 437/4/5 430/4/5 429/4/5
f 438/4/5 430/4/5 437/4/5
f 439/4/5 432/4/5 431/4/5
f 440/4/5 432/4/5 439/4/5
f 441/4/5 434/4/5 433/4/5
f 442/4/5 434/4/5 441/4/5
f 445/7/5 444/7/5 443/7/5
f 446/7/5 444/7/5 445/7/5
f 449/5/5 448/5/5 447/5/5
f 450/5/5 448/5/5 449/5/5
f 453/5/5 452/5/5 451/5/5
f 454/5/5 452/5/5 453/5/5
f 455/6/6 456/6/6 457/6/6
f 457/6/6 456/6/6 458/6/6
f 459/4/6 460/4/6 463/4/6
f 463/4/6 460/4/6 464/4/6
f 461/4/6 462/4/6 465/4/6
f 465/4/6 462/4/6 466/4/6
f 467/4/6 468/4/6 471/4/6
f 471/4/6 468/4/6 472/4/6
f 469/4/6 470/4/6 473/4/6
f 473/4/6 470/4/6 474/4/6
f 475/2/6 476/2/6 480/2/6
f 480/2/6 476/2/6 481/2/6
f 478/2/6 479/2/6 482/2/6
f 477/6/6 478/6/6 482/6/6
f 482/2/6 479/2/6 483/2/6
f 480/6/6 481/6/6 484/6/6
f 484/6/6 481/6/6 485/6/6
f 477/6/6 482/6/6 486/6/6
f 482/6/6 483/6/6 486/6/6
f 486/6/6 483/6/6 487/6/6
f 484/5/6 485/5/6 488/5/6
f 488/5/6 485/5/6 489/5/6
f 486/5/6 487/5/6 490/5/6
f 490/5/6 487/5/6 491/5/6
f 488/6/6 489/6/6 492/6/6
f 492/6/6 489/6/6 493/6/6
f 490/6/6 491/6/6 494/6/6
f 494/6/6 491/6/6 495/6/6
f 492/5/6 493/5/6 496/5/6
f 496/5/6 493/5/6 497/5/6
f 494/5/6 495/5/6 498/5/6
f 498/5/6 495/5/6 499/5/6
f 496/6/6 497/6/6 500/6/6
f 500/6/6 497/6/6 501/6/6
f 498/6/6 499/6/6 502/6/6
f 502/6/6 499/6/6 503/6/6
f 500/2/6 501/2/6 504/2/6
f 504/2/6 501/2/6 505/2/6
f 498/6/6 502/6/6 506/6/6
f 502/2/6 503/2/6 507/2/6
f 506/6/6 502/6/6 507/6/6
f 507/2/6 503/2/6 508/2/6
f 509/5/6 510/5/6 512/5/6
f 512/5/6 510/5/6 513/5/6
f 511/6/6 512/6/6 515/6/6
f 513/6/6 514/6/6 515/6/6
f 512/6/6 513/6/6 515/6/6
f 515/6/6 514/6/6 516/6/6
f 511/6/6 515/6/6 517/6/6
f 517/6/6 515/6/6 518/6/6
f 516/6/6 514/6/6 519/6/6
f 519/6/6 514/6/6 520/6/6
f 517/5/6 518/5/6 521/5/6
f 521/5/6 518/5/6 522/5/6
f 519/5/6 520/5/6 523/5/6
f 523/5/6 520/5/6 524/5/6
f 521/6/6 522/6/6 525/6/6
f 525/6/6 522/6/6 526/6/6
f 523/6/6 524/6/6 527/6/6
f 527/6/6 524/6/6 528/6/6
f 525/5/6 526/5/6 529/5/6
f 529/5/6 526/5/6 530/5/6
f 527/5/6 528/5/6 531/5/6
f 531/5/6 528/5/6 532/5/6
f 529/6/6 530/6/6 533/6/6
f 531/6/6 532/6/6 534/6/6
f 529/6/6 533/6/6 535/6/6
f 533/6/6 534/6/6 535/6/6
f 535/6/6 534/6/6 536/6/6
f 536/6/6 534/6/6 537/6/6
f 534/6/6 532/6/6 538/6/6
f 537/6/6 534/6/6 538/6/6
f 536/5/6 537/5/6 539/5/6
f 539/5/6 537/5/6 540/5/6
f 541/5/6 542/5/6 543/5/6
f 543/5/6 542/5/6 544/5/6
