# MagicaVoxel @ Ephtracy

# group
o 

# material
mtllib prototipociudad-12.mtl
usemtl palette

# normals
vn 1 0 0
vn -1 0 0
vn 0 0 -1
vn 0 0 1
vn 0 -1 0
vn 0 1 0

# texcoords
vt 0.767578 0.5
vt 0.783203 0.5
vt 0.787109 0.5
vt 0.791016 0.5
vt 0.830078 0.5
vt 0.833984 0.5
vt 0.837891 0.5
vt 0.849609 0.5
vt 0.958984 0.5

# verts
v 11.3 0.1 -12.1
v 11.3 0.1 -12
v 11.3 0.1 0.200001
v 11.3 0.1 0.3
v 11.3 0.2 -12
v 11.3 0.2 0.200001
v 11.3 1.1 -12.1
v 11.3 1.1 0.3
v 11.3 2.1 -12.1
v 11.3 2.1 0.3
v 11.3 2.5 -12
v 11.3 2.5 0.3
v 11.3 2.6 -12.1
v 11.3 2.6 -12
v 11.3 2.7 -12.1
v 11.3 2.7 0.3
v 6.6 2.6 -12.1
v 6.6 2.6 0.3
v 6.6 2.7 -12.1
v 6.6 2.7 0.3
v -1.1 0.1 -12.1
v -1.1 0.1 0.3
v -1.1 1.1 -12.1
v -1.1 1.1 0.3
v -1.1 2.1 -12.1
v -1.1 2.1 0.3
v -1.1 2.3 -12.1
v -1.1 2.3 0.3
v -1.2 2.3 -12.1
v -1.2 2.3 0.3
v -1.2 2.5 -12.1
v -1.2 2.5 0.3
v -1.2 2.6 -12.1
v -1.2 2.6 0.3
v 11.3 0.1 -12.1
v 11.3 1.1 -12.1
v 11.3 2.1 -12.1
v 11.3 2.6 -12.1
v 11.3 2.7 -12.1
v 6.6 2.3 -12.1
v 6.6 2.5 -12.1
v 6.6 2.6 -12.1
v 6.6 2.7 -12.1
v 3.7 2.5 -12.1
v 3.7 2.6 -12.1
v 3.4 2.5 -12.1
v 3.4 2.6 -12.1
v 0.5 2.5 -12.1
v 0.5 2.6 -12.1
v 0.200001 2.5 -12.1
v 0.200001 2.6 -12.1
v 0.1 2.5 -12.1
v 0.1 2.6 -12.1
v -0.2 2.5 -12.1
v -0.2 2.6 -12.1
v -1.1 0.1 -12.1
v -1.1 1.1 -12.1
v -1.1 2.1 -12.1
v -1.1 2.3 -12.1
v -1.2 2.3 -12.1
v -1.2 2.5 -12.1
v -1.2 2.6 -12.1
v 11.3 0.1 0.3
v 11.3 1.1 0.3
v 11.3 2.1 0.3
v 11.3 2.5 0.3
v 11.3 2.7 0.3
v 6.6 2.3 0.3
v 6.6 2.5 0.3
v 6.6 2.6 0.3
v 6.6 2.7 0.3
v 3.7 2.5 0.3
v 3.7 2.6 0.3
v 3.4 2.5 0.3
v 3.4 2.6 0.3
v 0.5 2.5 0.3
v 0.5 2.6 0.3
v 0.200001 2.5 0.3
v 0.200001 2.6 0.3
v 0.1 2.5 0.3
v 0.1 2.6 0.3
v -0.2 2.5 0.3
v -0.2 2.6 0.3
v -1.1 0.1 0.3
v -1.1 1.1 0.3
v -1.1 2.1 0.3
v -1.1 2.3 0.3
v -1.2 2.3 0.3
v -1.2 2.5 0.3
v -1.2 2.6 0.3
v 11.3 0.1 -12.1
v -1.1 0.1 -12.1
v 11.3 0.1 -12
v -1 0.1 -12
v 11.3 0.1 0.200001
v -1 0.1 0.200001
v 11.3 0.1 0.3
v -1.1 0.1 0.3
v -1.1 2.3 -12.1
v -1.2 2.3 -12.1
v -1.1 2.3 0.3
v -1.2 2.3 0.3
v 6.6 2.6 -12.1
v 3.7 2.6 -12.1
v 3.4 2.6 -12.1
v 0.5 2.6 -12.1
v 0.200001 2.6 -12.1
v 0.1 2.6 -12.1
v -0.2 2.6 -12.1
v -1.2 2.6 -12.1
v 3.7 2.6 -10.6
v 3.4 2.6 -10.6
v 3.7 2.6 -9.6
v 3.4 2.6 -9.6
v 3.7 2.6 -7.6
v 3.4 2.6 -7.6
v 3.7 2.6 -6.6
v 3.4 2.6 -6.6
v 3.7 2.6 -4.6
v 3.4 2.6 -4.6
v 3.7 2.6 -3.6
v 3.4 2.6 -3.6
v 3.7 2.6 -1.6
v 3.4 2.6 -1.6
v 3.7 2.6 -0.5
v 3.4 2.6 -0.5
v 6.6 2.6 0.3
v 3.7 2.6 0.3
v 3.4 2.6 0.3
v 0.5 2.6 0.3
v 0.200001 2.6 0.3
v 0.1 2.6 0.3
v -0.2 2.6 0.3
v -1.2 2.6 0.3
v 11.3 2.7 -12.1
v 6.6 2.7 -12.1
v 11.3 2.7 0.3
v 6.6 2.7 0.3

# faces
f 5/2/1 2/2/1 1/2/1
f 5/9/1 3/9/1 2/9/1
f 6/2/1 4/2/1 3/2/1
f 6/9/1 3/9/1 5/9/1
f 7/2/1 5/2/1 1/2/1
f 7/2/1 6/2/1 5/2/1
f 8/2/1 4/2/1 6/2/1
f 8/2/1 6/2/1 7/2/1
f 9/3/1 8/3/1 7/3/1
f 10/3/1 8/3/1 9/3/1
f 11/4/1 10/4/1 9/4/1
f 12/4/1 10/4/1 11/4/1
f 13/4/1 11/4/1 9/4/1
f 14/1/1 12/1/1 11/1/1
f 14/4/1 11/4/1 13/4/1
f 15/1/1 14/1/1 13/1/1
f 16/1/1 12/1/1 14/1/1
f 16/1/1 14/1/1 15/1/1
f 17/1/2 18/1/2 19/1/2
f 19/1/2 18/1/2 20/1/2
f 21/2/2 22/2/2 23/2/2
f 23/2/2 22/2/2 24/2/2
f 23/3/2 24/3/2 25/3/2
f 25/3/2 24/3/2 26/3/2
f 25/4/2 26/4/2 27/4/2
f 27/4/2 26/4/2 28/4/2
f 29/7/2 30/7/2 31/7/2
f 31/7/2 30/7/2 32/7/2
f 31/6/2 32/6/2 33/6/2
f 33/6/2 32/6/2 34/6/2
f 40/4/3 38/4/3 37/4/3
f 41/4/3 38/4/3 40/4/3
f 42/1/3 39/1/3 38/1/3
f 42/4/3 38/4/3 41/4/3
f 43/1/3 39/1/3 42/1/3
f 44/7/3 41/7/3 40/7/3
f 44/6/3 42/6/3 41/6/3
f 45/6/3 42/6/3 44/6/3
f 46/7/3 44/7/3 40/7/3
f 46/5/3 45/5/3 44/5/3
f 47/5/3 45/5/3 46/5/3
f 48/7/3 46/7/3 40/7/3
f 48/6/3 47/6/3 46/6/3
f 49/6/3 47/6/3 48/6/3
f 50/7/3 48/7/3 40/7/3
f 50/8/3 49/8/3 48/8/3
f 51/8/3 49/8/3 50/8/3
f 52/7/3 50/7/3 40/7/3
f 52/6/3 51/6/3 50/6/3
f 53/6/3 51/6/3 52/6/3
f 54/7/3 52/7/3 40/7/3
f 54/8/3 53/8/3 52/8/3
f 55/8/3 53/8/3 54/8/3
f 56/2/3 36/2/3 35/2/3
f 57/3/3 37/3/3 36/3/3
f 57/2/3 36/2/3 56/2/3
f 58/4/3 40/4/3 37/4/3
f 58/3/3 37/3/3 57/3/3
f 59/7/3 54/7/3 40/7/3
f 59/4/3 40/4/3 58/4/3
f 60/7/3 54/7/3 59/7/3
f 61/6/3 55/6/3 54/6/3
f 61/7/3 54/7/3 60/7/3
f 62/6/3 55/6/3 61/6/3
f 65/4/4 66/4/4 68/4/4
f 66/1/4 67/1/4 69/1/4
f 68/4/4 66/4/4 69/4/4
f 69/1/4 67/1/4 70/1/4
f 70/1/4 67/1/4 71/1/4
f 68/7/4 69/7/4 72/7/4
f 69/6/4 70/6/4 72/6/4
f 72/6/4 70/6/4 73/6/4
f 68/7/4 72/7/4 74/7/4
f 72/5/4 73/5/4 74/5/4
f 74/5/4 73/5/4 75/5/4
f 68/7/4 74/7/4 76/7/4
f 74/6/4 75/6/4 76/6/4
f 76/6/4 75/6/4 77/6/4
f 68/7/4 76/7/4 78/7/4
f 76/8/4 77/8/4 78/8/4
f 78/8/4 77/8/4 79/8/4
f 68/7/4 78/7/4 80/7/4
f 78/6/4 79/6/4 80/6/4
f 80/6/4 79/6/4 81/6/4
f 68/7/4 80/7/4 82/7/4
f 80/8/4 81/8/4 82/8/4
f 82/8/4 81/8/4 83/8/4
f 63/2/4 64/2/4 84/2/4
f 64/3/4 65/3/4 85/3/4
f 84/2/4 64/2/4 85/2/4
f 65/4/4 68/4/4 86/4/4
f 85/3/4 65/3/4 86/3/4
f 68/7/4 82/7/4 87/7/4
f 86/4/4 68/4/4 87/4/4
f 87/7/4 82/7/4 88/7/4
f 82/6/4 83/6/4 89/6/4
f 88/7/4 82/7/4 89/7/4
f 89/6/4 83/6/4 90/6/4
f 93/2/5 92/2/5 91/2/5
f 94/2/5 92/2/5 93/2/5
f 95/9/5 94/9/5 93/9/5
f 96/2/5 92/2/5 94/2/5
f 96/9/5 94/9/5 95/9/5
f 97/2/5 96/2/5 95/2/5
f 98/2/5 92/2/5 96/2/5
f 98/2/5 96/2/5 97/2/5
f 101/7/5 100/7/5 99/7/5
f 102/7/5 100/7/5 101/7/5
f 103/6/6 104/6/6 111/6/6
f 104/5/6 105/5/6 111/5/6
f 105/6/6 106/6/6 112/6/6
f 111/5/6 105/5/6 112/5/6
f 103/6/6 111/6/6 113/6/6
f 111/6/6 112/6/6 113/6/6
f 112/6/6 106/6/6 114/6/6
f 113/6/6 112/6/6 114/6/6
f 103/6/6 113/6/6 115/6/6
f 113/5/6 114/5/6 115/5/6
f 114/6/6 106/6/6 116/6/6
f 115/5/6 114/5/6 116/5/6
f 103/6/6 115/6/6 117/6/6
f 115/6/6 116/6/6 117/6/6
f 116/6/6 106/6/6 118/6/6
f 117/6/6 116/6/6 118/6/6
f 103/6/6 117/6/6 119/6/6
f 117/5/6 118/5/6 119/5/6
f 118/6/6 106/6/6 120/6/6
f 119/5/6 118/5/6 120/5/6
f 103/6/6 119/6/6 121/6/6
f 119/6/6 120/6/6 121/6/6
f 120/6/6 106/6/6 122/6/6
f 121/6/6 120/6/6 122/6/6
f 103/6/6 121/6/6 123/6/6
f 121/5/6 122/5/6 123/5/6
f 122/6/6 106/6/6 124/6/6
f 123/5/6 122/5/6 124/5/6
f 103/6/6 123/6/6 125/6/6
f 123/6/6 124/6/6 125/6/6
f 124/6/6 106/6/6 126/6/6
f 125/6/6 124/6/6 126/6/6
f 103/6/6 125/6/6 127/6/6
f 125/5/6 126/5/6 128/5/6
f 127/6/6 125/6/6 128/6/6
f 126/6/6 106/6/6 129/6/6
f 128/5/6 126/5/6 129/5/6
f 106/8/6 107/8/6 130/8/6
f 129/6/6 106/6/6 130/6/6
f 107/6/6 108/6/6 131/6/6
f 130/8/6 107/8/6 131/8/6
f 108/8/6 109/8/6 132/8/6
f 131/6/6 108/6/6 132/6/6
f 109/6/6 110/6/6 133/6/6
f 132/8/6 109/8/6 133/8/6
f 133/6/6 110/6/6 134/6/6
f 135/1/6 136/1/6 137/1/6
f 137/1/6 136/1/6 138/1/6
