# MagicaVoxel @ Ephtracy

# group
o 

# material
mtllib prototipociudad-2.mtl
usemtl palette

# normals
vn 1 0 0
vn -1 0 0
vn 0 0 -1
vn 0 0 1
vn 0 -1 0
vn 0 1 0

# texcoords
vt 0.767578 0.5
vt 0.783203 0.5
vt 0.787109 0.5
vt 0.791016 0.5
vt 0.830078 0.5
vt 0.833984 0.5
vt 0.837891 0.5
vt 0.849609 0.5
vt 0.958984 0.5

# verts
v 11.3 0.1 12.6
v 11.3 0.1 12.7
v 11.3 0.1 24.9
v 11.3 0.1 25
v 11.3 0.2 12.7
v 11.3 0.2 24.9
v 11.3 1.1 12.6
v 11.3 1.1 25
v 11.3 2.1 12.6
v 11.3 2.1 25
v 11.3 2.6 12.6
v 11.3 2.6 25
v 11.3 2.7 12.6
v 11.3 2.7 25
v 6.6 2.6 12.6
v 6.6 2.6 25
v 6.6 2.7 12.6
v 6.6 2.7 25
v -1.1 0.1 12.6
v -1.1 0.1 25
v -1.1 1.1 12.6
v -1.1 1.1 25
v -1.1 2.1 12.6
v -1.1 2.1 25
v -1.1 2.3 12.6
v -1.1 2.3 25
v -1.2 2.3 12.6
v -1.2 2.3 25
v -1.2 2.5 12.6
v -1.2 2.5 25
v -1.2 2.6 12.6
v -1.2 2.6 25
v 11.3 0.1 12.6
v 11.3 1.1 12.6
v 11.3 2.1 12.6
v 11.3 2.6 12.6
v 11.3 2.7 12.6
v 6.6 2.3 12.6
v 6.6 2.5 12.6
v 6.6 2.6 12.6
v 6.6 2.7 12.6
v 3.7 2.5 12.6
v 3.7 2.6 12.6
v 3.4 2.5 12.6
v 3.4 2.6 12.6
v 0.5 2.5 12.6
v 0.5 2.6 12.6
v 0.200001 2.5 12.6
v 0.200001 2.6 12.6
v 0.1 2.5 12.6
v 0.1 2.6 12.6
v -0.2 2.5 12.6
v -0.2 2.6 12.6
v -1.1 0.1 12.6
v -1.1 1.1 12.6
v -1.1 2.1 12.6
v -1.1 2.3 12.6
v -1.2 2.3 12.6
v -1.2 2.5 12.6
v -1.2 2.6 12.6
v 11.3 0.1 25
v 11.3 1.1 25
v 11.3 2.1 25
v 11.3 2.6 25
v 11.3 2.7 25
v 6.6 2.3 25
v 6.6 2.5 25
v 6.6 2.6 25
v 6.6 2.7 25
v 3.7 2.5 25
v 3.7 2.6 25
v 3.4 2.5 25
v 3.4 2.6 25
v 0.5 2.5 25
v 0.5 2.6 25
v 0.200001 2.5 25
v 0.200001 2.6 25
v 0.1 2.5 25
v 0.1 2.6 25
v -0.2 2.5 25
v -0.2 2.6 25
v -1.1 0.1 25
v -1.1 1.1 25
v -1.1 2.1 25
v -1.1 2.3 25
v -1.2 2.3 25
v -1.2 2.5 25
v -1.2 2.6 25
v 11.3 0.1 12.6
v -1.1 0.1 12.6
v 11.3 0.1 12.7
v -1 0.1 12.7
v 11.3 0.1 24.9
v -1 0.1 24.9
v 11.3 0.1 25
v -1.1 0.1 25
v -1.1 2.3 12.6
v -1.2 2.3 12.6
v -1.1 2.3 25
v -1.2 2.3 25
v 6.6 2.6 12.6
v 3.7 2.6 12.6
v 3.4 2.6 12.6
v 0.5 2.6 12.6
v 0.200001 2.6 12.6
v 0.1 2.6 12.6
v -0.2 2.6 12.6
v -1.2 2.6 12.6
v 3.7 2.6 14.1
v 3.4 2.6 14.1
v 3.7 2.6 15.1
v 3.4 2.6 15.1
v 3.7 2.6 17.1
v 3.4 2.6 17.1
v 3.7 2.6 18.1
v 3.4 2.6 18.1
v 3.7 2.6 20.1
v 3.4 2.6 20.1
v 3.7 2.6 21.1
v 3.4 2.6 21.1
v 3.7 2.6 23.1
v 3.4 2.6 23.1
v 3.7 2.6 24.2
v 3.4 2.6 24.2
v 6.6 2.6 25
v 3.7 2.6 25
v 3.4 2.6 25
v 0.5 2.6 25
v 0.200001 2.6 25
v 0.1 2.6 25
v -0.2 2.6 25
v -1.2 2.6 25
v 11.3 2.7 12.6
v 6.6 2.7 12.6
v 11.3 2.7 25
v 6.6 2.7 25

# faces
f 5/2/1 2/2/1 1/2/1
f 5/9/1 3/9/1 2/9/1
f 6/2/1 4/2/1 3/2/1
f 6/9/1 3/9/1 5/9/1
f 7/2/1 5/2/1 1/2/1
f 7/2/1 6/2/1 5/2/1
f 8/2/1 4/2/1 6/2/1
f 8/2/1 6/2/1 7/2/1
f 9/3/1 8/3/1 7/3/1
f 10/3/1 8/3/1 9/3/1
f 11/4/1 10/4/1 9/4/1
f 12/4/1 10/4/1 11/4/1
f 13/1/1 12/1/1 11/1/1
f 14/1/1 12/1/1 13/1/1
f 15/1/2 16/1/2 17/1/2
f 17/1/2 16/1/2 18/1/2
f 19/2/2 20/2/2 21/2/2
f 21/2/2 20/2/2 22/2/2
f 21/3/2 22/3/2 23/3/2
f 23/3/2 22/3/2 24/3/2
f 23/4/2 24/4/2 25/4/2
f 25/4/2 24/4/2 26/4/2
f 27/7/2 28/7/2 29/7/2
f 29/7/2 28/7/2 30/7/2
f 29/6/2 30/6/2 31/6/2
f 31/6/2 30/6/2 32/6/2
f 38/4/3 36/4/3 35/4/3
f 39/4/3 36/4/3 38/4/3
f 40/1/3 37/1/3 36/1/3
f 40/4/3 36/4/3 39/4/3
f 41/1/3 37/1/3 40/1/3
f 42/7/3 39/7/3 38/7/3
f 42/6/3 40/6/3 39/6/3
f 43/6/3 40/6/3 42/6/3
f 44/7/3 42/7/3 38/7/3
f 44/5/3 43/5/3 42/5/3
f 45/5/3 43/5/3 44/5/3
f 46/7/3 44/7/3 38/7/3
f 46/6/3 45/6/3 44/6/3
f 47/6/3 45/6/3 46/6/3
f 48/7/3 46/7/3 38/7/3
f 48/8/3 47/8/3 46/8/3
f 49/8/3 47/8/3 48/8/3
f 50/7/3 48/7/3 38/7/3
f 50/6/3 49/6/3 48/6/3
f 51/6/3 49/6/3 50/6/3
f 52/7/3 50/7/3 38/7/3
f 52/8/3 51/8/3 50/8/3
f 53/8/3 51/8/3 52/8/3
f 54/2/3 34/2/3 33/2/3
f 55/3/3 35/3/3 34/3/3
f 55/2/3 34/2/3 54/2/3
f 56/4/3 38/4/3 35/4/3
f 56/3/3 35/3/3 55/3/3
f 57/7/3 52/7/3 38/7/3
f 57/4/3 38/4/3 56/4/3
f 58/7/3 52/7/3 57/7/3
f 59/6/3 53/6/3 52/6/3
f 59/7/3 52/7/3 58/7/3
f 60/6/3 53/6/3 59/6/3
f 63/4/4 64/4/4 66/4/4
f 66/4/4 64/4/4 67/4/4
f 64/1/4 65/1/4 68/1/4
f 67/4/4 64/4/4 68/4/4
f 68/1/4 65/1/4 69/1/4
f 66/7/4 67/7/4 70/7/4
f 67/6/4 68/6/4 70/6/4
f 70/6/4 68/6/4 71/6/4
f 66/7/4 70/7/4 72/7/4
f 70/5/4 71/5/4 72/5/4
f 72/5/4 71/5/4 73/5/4
f 66/7/4 72/7/4 74/7/4
f 72/6/4 73/6/4 74/6/4
f 74/6/4 73/6/4 75/6/4
f 66/7/4 74/7/4 76/7/4
f 74/8/4 75/8/4 76/8/4
f 76/8/4 75/8/4 77/8/4
f 66/7/4 76/7/4 78/7/4
f 76/6/4 77/6/4 78/6/4
f 78/6/4 77/6/4 79/6/4
f 66/7/4 78/7/4 80/7/4
f 78/8/4 79/8/4 80/8/4
f 80/8/4 79/8/4 81/8/4
f 61/2/4 62/2/4 82/2/4
f 62/3/4 63/3/4 83/3/4
f 82/2/4 62/2/4 83/2/4
f 63/4/4 66/4/4 84/4/4
f 83/3/4 63/3/4 84/3/4
f 66/7/4 80/7/4 85/7/4
f 84/4/4 66/4/4 85/4/4
f 85/7/4 80/7/4 86/7/4
f 80/6/4 81/6/4 87/6/4
f 86/7/4 80/7/4 87/7/4
f 87/6/4 81/6/4 88/6/4
f 91/2/5 90/2/5 89/2/5
f 92/2/5 90/2/5 91/2/5
f 93/9/5 92/9/5 91/9/5
f 94/2/5 90/2/5 92/2/5
f 94/9/5 92/9/5 93/9/5
f 95/2/5 94/2/5 93/2/5
f 96/2/5 90/2/5 94/2/5
f 96/2/5 94/2/5 95/2/5
f 99/7/5 98/7/5 97/7/5
f 100/7/5 98/7/5 99/7/5
f 101/6/6 102/6/6 109/6/6
f 102/5/6 103/5/6 109/5/6
f 103/6/6 104/6/6 110/6/6
f 109/5/6 103/5/6 110/5/6
f 101/6/6 109/6/6 111/6/6
f 109/6/6 110/6/6 111/6/6
f 110/6/6 104/6/6 112/6/6
f 111/6/6 110/6/6 112/6/6
f 101/6/6 111/6/6 113/6/6
f 111/5/6 112/5/6 113/5/6
f 112/6/6 104/6/6 114/6/6
f 113/5/6 112/5/6 114/5/6
f 101/6/6 113/6/6 115/6/6
f 113/6/6 114/6/6 115/6/6
f 114/6/6 104/6/6 116/6/6
f 115/6/6 114/6/6 116/6/6
f 101/6/6 115/6/6 117/6/6
f 115/5/6 116/5/6 117/5/6
f 116/6/6 104/6/6 118/6/6
f 117/5/6 116/5/6 118/5/6
f 101/6/6 117/6/6 119/6/6
f 117/6/6 118/6/6 119/6/6
f 118/6/6 104/6/6 120/6/6
f 119/6/6 118/6/6 120/6/6
f 101/6/6 119/6/6 121/6/6
f 119/5/6 120/5/6 121/5/6
f 120/6/6 104/6/6 122/6/6
f 121/5/6 120/5/6 122/5/6
f 101/6/6 121/6/6 123/6/6
f 121/6/6 122/6/6 123/6/6
f 122/6/6 104/6/6 124/6/6
f 123/6/6 122/6/6 124/6/6
f 101/6/6 123/6/6 125/6/6
f 123/5/6 124/5/6 126/5/6
f 125/6/6 123/6/6 126/6/6
f 124/6/6 104/6/6 127/6/6
f 126/5/6 124/5/6 127/5/6
f 104/8/6 105/8/6 128/8/6
f 127/6/6 104/6/6 128/6/6
f 105/6/6 106/6/6 129/6/6
f 128/8/6 105/8/6 129/8/6
f 106/8/6 107/8/6 130/8/6
f 129/6/6 106/6/6 130/6/6
f 107/6/6 108/6/6 131/6/6
f 130/8/6 107/8/6 131/8/6
f 131/6/6 108/6/6 132/6/6
f 133/1/6 134/1/6 135/1/6
f 135/1/6 134/1/6 136/1/6
