# MagicaVoxel @ Ephtracy

# group
o 

# material
mtllib prototipociudad-8.mtl
usemtl palette

# normals
vn -1 0 0
vn 1 0 0
vn 0 0 1
vn 0 0 -1
vn 0 -1 0
vn 0 1 0

# texcoords
vt 0.767578 0.5
vt 0.783203 0.5
vt 0.787109 0.5
vt 0.791016 0.5
vt 0.830078 0.5
vt 0.833984 0.5
vt 0.837891 0.5
vt 0.849609 0.5
vt 0.958984 0.5

# verts
v -11 0.1 25
v -11 0.1 12.7
v -11 0.1 12.6
v -11 0.2 25
v -11 0.2 12.7
v -11 1.1 25
v -11 1.1 12.6
v -11 2.1 25
v -11 2.1 12.6
v -11 2.6 25
v -11 2.6 12.6
v -11 2.7 25
v -11 2.7 12.6
v -0.400001 2.4 24.9
v -0.400001 2.4 24.8
v -0.400001 2.4 15.3
v -0.400001 2.4 12.8
v -0.400001 2.5 24.9
v -0.400001 2.5 24.8
v -0.400001 2.5 15.3
v -0.400001 2.5 12.8
v -6.3 2.6 25
v -6.3 2.6 12.6
v -6.3 2.7 25
v -6.3 2.7 12.6
v -0.5 2.4 24.9
v -0.5 2.4 24.8
v -0.5 2.4 15.3
v -0.5 2.4 12.8
v -0.5 2.5 24.9
v -0.5 2.5 24.8
v -0.5 2.5 15.3
v -0.5 2.5 12.8
v 1.5 0.1 25
v 1.5 0.1 12.6
v 1.5 1.1 25
v 1.5 1.1 12.6
v 1.5 2.1 25
v 1.5 2.1 12.6
v 1.5 2.3 25
v 1.5 2.3 12.6
v 1.5 2.5 25
v 1.5 2.5 12.6
v 1.5 2.6 25
v 1.5 2.6 12.6
v -11 0.1 25
v -11 0.2 25
v -11 1.1 25
v -11 2.1 25
v -11 2.6 25
v -11 2.7 25
v -6.3 2.3 25
v -6.3 2.5 25
v -6.3 2.6 25
v -6.3 2.7 25
v -3.4 2.5 25
v -3.4 2.6 25
v -3.1 2.5 25
v -3.1 2.6 25
v -0.2 2.5 25
v -0.2 2.6 25
v 0.0999994 2.5 25
v 0.0999994 2.6 25
v 0.2 2.5 25
v 0.2 2.6 25
v 0.5 2.5 25
v 0.5 2.6 25
v 1.3 0.1 25
v 1.3 0.2 25
v 1.5 0.1 25
v 1.5 1.1 25
v 1.5 2.1 25
v 1.5 2.3 25
v 1.5 2.5 25
v 1.5 2.6 25
v -0.5 2.4 24.8
v -0.5 2.5 24.8
v -0.400001 2.4 24.8
v -0.400001 2.5 24.8
v -0.5 2.4 12.8
v -0.5 2.5 12.8
v -0.400001 2.4 12.8
v -0.400001 2.5 12.8
v -0.5 2.4 24.9
v -0.5 2.5 24.9
v -0.400001 2.4 24.9
v -0.400001 2.5 24.9
v -0.5 2.4 15.3
v -0.5 2.5 15.3
v -0.400001 2.4 15.3
v -0.400001 2.5 15.3
v -11 0.1 12.6
v -11 1.1 12.6
v -11 2.1 12.6
v -11 2.6 12.6
v -11 2.7 12.6
v -6.3 2.3 12.6
v -6.3 2.5 12.6
v -6.3 2.6 12.6
v -6.3 2.7 12.6
v -3.4 2.5 12.6
v -3.4 2.6 12.6
v -3.1 2.5 12.6
v -3.1 2.6 12.6
v -0.2 2.5 12.6
v -0.2 2.6 12.6
v 0.0999994 2.5 12.6
v 0.0999994 2.6 12.6
v 0.2 2.4 12.6
v 0.2 2.5 12.6
v 0.2 2.6 12.6
v 0.5 2.4 12.6
v 0.5 2.5 12.6
v 0.5 2.6 12.6
v 1.5 0.1 12.6
v 1.5 1.1 12.6
v 1.5 2.1 12.6
v 1.5 2.3 12.6
v 1.5 2.5 12.6
v 1.5 2.6 12.6
v -11 0.1 25
v 1.3 0.1 25
v 1.5 0.1 25
v -11 0.1 12.7
v 1.3 0.1 12.7
v -11 0.1 12.6
v 1.5 0.1 12.6
v -0.5 2.5 24.9
v -0.400001 2.5 24.9
v -0.5 2.5 24.8
v -0.400001 2.5 24.8
v -0.5 2.5 15.3
v -0.400001 2.5 15.3
v -0.5 2.5 12.8
v -0.400001 2.5 12.8
v -0.5 2.4 24.9
v -0.400001 2.4 24.9
v -0.5 2.4 24.8
v -0.400001 2.4 24.8
v -0.5 2.4 15.3
v -0.400001 2.4 15.3
v -0.5 2.4 12.8
v -0.400001 2.4 12.8
v -6.3 2.6 25
v -3.4 2.6 25
v -3.1 2.6 25
v -0.2 2.6 25
v 0.0999994 2.6 25
v 0.2 2.6 25
v 0.5 2.6 25
v 1.5 2.6 25
v -3.4 2.6 23.1
v -3.1 2.6 23.1
v -3.4 2.6 22.1
v -3.1 2.6 22.1
v -3.4 2.6 20.1
v -3.1 2.6 20.1
v -3.4 2.6 19.1
v -3.1 2.6 19.1
v -3.4 2.6 17.1
v -3.1 2.6 17.1
v -3.4 2.6 16.1
v -3.1 2.6 16.1
v -3.4 2.6 14.1
v -3.1 2.6 14.1
v -3.4 2.6 13.1
v -3.1 2.6 13.1
v -6.3 2.6 12.6
v -3.4 2.6 12.6
v -3.1 2.6 12.6
v -0.2 2.6 12.6
v 0.0999994 2.6 12.6
v 0.2 2.6 12.6
v 0.5 2.6 12.6
v 1.5 2.6 12.6
v -11 2.7 25
v -6.3 2.7 25
v -9.8 2.7 24.9
v -6.9 2.7 24.9
v -9.8 2.7 19.7
v -9.5 2.7 19.7
v -9.5 2.7 13.7
v -6.9 2.7 13.7
v -11 2.7 12.6
v -6.3 2.7 12.6

# faces
f 4/9/1 2/9/1 1/9/1
f 5/2/1 3/2/1 2/2/1
f 5/9/1 2/9/1 4/9/1
f 6/2/1 5/2/1 4/2/1
f 7/2/1 3/2/1 5/2/1
f 7/2/1 5/2/1 6/2/1
f 8/3/1 7/3/1 6/3/1
f 9/3/1 7/3/1 8/3/1
f 10/4/1 9/4/1 8/4/1
f 11/4/1 9/4/1 10/4/1
f 12/1/1 11/1/1 10/1/1
f 13/1/1 11/1/1 12/1/1
f 18/4/1 15/4/1 14/4/1
f 19/4/1 15/4/1 18/4/1
f 20/4/1 17/4/1 16/4/1
f 21/4/1 17/4/1 20/4/1
f 22/1/2 23/1/2 24/1/2
f 24/1/2 23/1/2 25/1/2
f 26/9/2 27/9/2 30/9/2
f 30/9/2 27/9/2 31/9/2
f 28/9/2 29/9/2 32/9/2
f 32/9/2 29/9/2 33/9/2
f 34/2/2 35/2/2 36/2/2
f 36/2/2 35/2/2 37/2/2
f 36/3/2 37/3/2 38/3/2
f 38/3/2 37/3/2 39/3/2
f 38/4/2 39/4/2 40/4/2
f 40/4/2 39/4/2 41/4/2
f 40/7/2 41/7/2 42/7/2
f 42/7/2 41/7/2 43/7/2
f 42/6/2 43/6/2 44/6/2
f 44/6/2 43/6/2 45/6/2
f 52/4/3 50/4/3 49/4/3
f 53/4/3 50/4/3 52/4/3
f 54/1/3 51/1/3 50/1/3
f 54/4/3 50/4/3 53/4/3
f 55/1/3 51/1/3 54/1/3
f 56/7/3 53/7/3 52/7/3
f 56/6/3 54/6/3 53/6/3
f 57/6/3 54/6/3 56/6/3
f 58/7/3 56/7/3 52/7/3
f 58/5/3 57/5/3 56/5/3
f 59/5/3 57/5/3 58/5/3
f 60/7/3 58/7/3 52/7/3
f 60/6/3 59/6/3 58/6/3
f 61/6/3 59/6/3 60/6/3
f 62/7/3 60/7/3 52/7/3
f 62/8/3 61/8/3 60/8/3
f 63/8/3 61/8/3 62/8/3
f 64/7/3 62/7/3 52/7/3
f 64/6/3 63/6/3 62/6/3
f 65/6/3 63/6/3 64/6/3
f 66/7/3 64/7/3 52/7/3
f 66/8/3 65/8/3 64/8/3
f 67/8/3 65/8/3 66/8/3
f 68/9/3 47/9/3 46/9/3
f 69/2/3 48/2/3 47/2/3
f 69/9/3 47/9/3 68/9/3
f 70/2/3 69/2/3 68/2/3
f 71/3/3 49/3/3 48/3/3
f 71/2/3 69/2/3 70/2/3
f 71/2/3 48/2/3 69/2/3
f 72/4/3 52/4/3 49/4/3
f 72/3/3 49/3/3 71/3/3
f 73/7/3 66/7/3 52/7/3
f 73/4/3 52/4/3 72/4/3
f 74/6/3 67/6/3 66/6/3
f 74/7/3 66/7/3 73/7/3
f 75/6/3 67/6/3 74/6/3
f 78/6/3 77/6/3 76/6/3
f 79/6/3 77/6/3 78/6/3
f 82/4/3 81/4/3 80/4/3
f 83/4/3 81/4/3 82/4/3
f 84/7/4 85/7/4 86/7/4
f 86/7/4 85/7/4 87/7/4
f 88/6/4 89/6/4 90/6/4
f 90/6/4 89/6/4 91/6/4
f 94/4/4 95/4/4 97/4/4
f 97/4/4 95/4/4 98/4/4
f 95/1/4 96/1/4 99/1/4
f 98/4/4 95/4/4 99/4/4
f 99/1/4 96/1/4 100/1/4
f 97/7/4 98/7/4 101/7/4
f 98/6/4 99/6/4 101/6/4
f 101/6/4 99/6/4 102/6/4
f 97/7/4 101/7/4 103/7/4
f 101/5/4 102/5/4 103/5/4
f 103/5/4 102/5/4 104/5/4
f 97/7/4 103/7/4 105/7/4
f 103/6/4 104/6/4 105/6/4
f 105/6/4 104/6/4 106/6/4
f 97/7/4 105/7/4 107/7/4
f 105/8/4 106/8/4 107/8/4
f 107/8/4 106/8/4 108/8/4
f 97/7/4 107/7/4 109/7/4
f 107/6/4 108/6/4 110/6/4
f 109/7/4 107/7/4 110/7/4
f 110/6/4 108/6/4 111/6/4
f 97/7/4 109/7/4 112/7/4
f 109/5/4 110/5/4 112/5/4
f 110/8/4 111/8/4 113/8/4
f 112/5/4 110/5/4 113/5/4
f 113/8/4 111/8/4 114/8/4
f 92/2/4 93/2/4 115/2/4
f 93/3/4 94/3/4 116/3/4
f 115/2/4 93/2/4 116/2/4
f 94/4/4 97/4/4 117/4/4
f 116/3/4 94/3/4 117/3/4
f 97/7/4 112/7/4 118/7/4
f 117/4/4 97/4/4 118/4/4
f 112/7/4 113/7/4 118/7/4
f 113/6/4 114/6/4 119/6/4
f 118/7/4 113/7/4 119/7/4
f 119/6/4 114/6/4 120/6/4
f 124/9/5 122/9/5 121/9/5
f 125/2/5 123/2/5 122/2/5
f 125/9/5 122/9/5 124/9/5
f 126/2/5 125/2/5 124/2/5
f 127/2/5 123/2/5 125/2/5
f 127/2/5 125/2/5 126/2/5
f 130/6/5 129/6/5 128/6/5
f 131/6/5 129/6/5 130/6/5
f 134/6/5 133/6/5 132/6/5
f 135/6/5 133/6/5 134/6/5
f 136/4/6 137/4/6 138/4/6
f 138/4/6 137/4/6 139/4/6
f 140/4/6 141/4/6 142/4/6
f 142/4/6 141/4/6 143/4/6
f 144/6/6 145/6/6 152/6/6
f 145/5/6 146/5/6 152/5/6
f 146/6/6 147/6/6 153/6/6
f 152/5/6 146/5/6 153/5/6
f 144/6/6 152/6/6 154/6/6
f 152/6/6 153/6/6 154/6/6
f 153/6/6 147/6/6 155/6/6
f 154/6/6 153/6/6 155/6/6
f 144/6/6 154/6/6 156/6/6
f 154/5/6 155/5/6 156/5/6
f 155/6/6 147/6/6 157/6/6
f 156/5/6 155/5/6 157/5/6
f 144/6/6 156/6/6 158/6/6
f 156/6/6 157/6/6 158/6/6
f 157/6/6 147/6/6 159/6/6
f 158/6/6 157/6/6 159/6/6
f 144/6/6 158/6/6 160/6/6
f 158/5/6 159/5/6 160/5/6
f 159/6/6 147/6/6 161/6/6
f 160/5/6 159/5/6 161/5/6
f 144/6/6 160/6/6 162/6/6
f 160/6/6 161/6/6 162/6/6
f 161/6/6 147/6/6 163/6/6
f 162/6/6 161/6/6 163/6/6
f 144/6/6 162/6/6 164/6/6
f 162/5/6 163/5/6 164/5/6
f 163/6/6 147/6/6 165/6/6
f 164/5/6 163/5/6 165/5/6
f 144/6/6 164/6/6 166/6/6
f 164/6/6 165/6/6 166/6/6
f 165/6/6 147/6/6 167/6/6
f 166/6/6 165/6/6 167/6/6
f 144/6/6 166/6/6 168/6/6
f 166/5/6 167/5/6 169/5/6
f 168/6/6 166/6/6 169/6/6
f 167/6/6 147/6/6 170/6/6
f 169/5/6 167/5/6 170/5/6
f 147/8/6 148/8/6 171/8/6
f 170/6/6 147/6/6 171/6/6
f 148/6/6 149/6/6 172/6/6
f 171/8/6 148/8/6 172/8/6
f 149/8/6 150/8/6 173/8/6
f 172/6/6 149/6/6 173/6/6
f 150/6/6 151/6/6 174/6/6
f 173/8/6 150/8/6 174/8/6
f 174/6/6 151/6/6 175/6/6
f 176/1/6 177/1/6 178/1/6
f 178/1/6 177/1/6 179/1/6
f 176/1/6 178/1/6 180/1/6
f 178/9/6 179/9/6 180/9/6
f 180/9/6 179/9/6 181/9/6
f 180/1/6 181/1/6 182/1/6
f 181/9/6 179/9/6 182/9/6
f 179/1/6 177/1/6 183/1/6
f 182/9/6 179/9/6 183/9/6
f 180/1/6 182/1/6 184/1/6
f 176/1/6 180/1/6 184/1/6
f 182/1/6 183/1/6 184/1/6
f 183/1/6 177/1/6 185/1/6
f 184/1/6 183/1/6 185/1/6
